<mxfile host="Electron" modified="2023-05-23T07:53:05.131Z" agent="Mozilla/5.0 (Windows NT 10.0; Win64; x64) AppleWebKit/537.36 (KHTML, like Gecko) draw.io/21.2.8 Chrome/112.0.5615.165 Electron/24.2.0 Safari/537.36" etag="_CsD33Z6Sd-FYtVY7Gbj" version="21.2.8" type="device">
  <diagram name="第1頁" id="AanB8yNyS1pnc1NzVk0f">
    <mxGraphModel dx="1036" dy="702" grid="1" gridSize="10" guides="1" tooltips="1" connect="1" arrows="1" fold="1" page="1" pageScale="1" pageWidth="1654" pageHeight="2336" math="0" shadow="0">
      <root>
        <mxCell id="0" />
        <mxCell id="1" parent="0" />
        <mxCell id="eTLpP6uWotXhplV7fHBe-1" value="&lt;font style=&quot;font-size: 16px;&quot;&gt;Goal: Delete 41&lt;/font&gt;" style="text;html=1;strokeColor=none;fillColor=none;align=center;verticalAlign=middle;whiteSpace=wrap;rounded=0;" parent="1" vertex="1">
          <mxGeometry x="20" y="20" width="130" height="30" as="geometry" />
        </mxCell>
        <mxCell id="eTLpP6uWotXhplV7fHBe-2" value="&lt;font style=&quot;font-size: 16px;&quot;&gt;Underflow&lt;/font&gt;" style="text;html=1;strokeColor=none;fillColor=none;align=center;verticalAlign=middle;whiteSpace=wrap;rounded=0;" parent="1" vertex="1">
          <mxGeometry x="1070" y="460" width="190" height="30" as="geometry" />
        </mxCell>
        <mxCell id="eTLpP6uWotXhplV7fHBe-3" value="&lt;font style=&quot;font-size: 16px;&quot;&gt;Merge to Left Node&lt;/font&gt;" style="text;html=1;strokeColor=none;fillColor=none;align=center;verticalAlign=middle;whiteSpace=wrap;rounded=0;" parent="1" vertex="1">
          <mxGeometry x="1070" y="490" width="200" height="30" as="geometry" />
        </mxCell>
        <mxCell id="HFGzD5aRAg4K0Wa026lf-93" value="&lt;font style=&quot;font-size: 16px;&quot;&gt;Delete Key&lt;/font&gt;" style="text;html=1;strokeColor=none;fillColor=none;align=center;verticalAlign=middle;whiteSpace=wrap;rounded=0;" parent="1" vertex="1">
          <mxGeometry x="1161.5" y="295" width="108.5" height="30" as="geometry" />
        </mxCell>
        <mxCell id="IGcFUfpyZ4BzvfiEJZXn-4" value="" style="shape=table;startSize=0;container=1;collapsible=0;childLayout=tableLayout;fontSize=16;" parent="1" vertex="1">
          <mxGeometry x="250" y="290" width="267" height="40" as="geometry" />
        </mxCell>
        <mxCell id="IGcFUfpyZ4BzvfiEJZXn-5" value="" style="shape=tableRow;horizontal=0;startSize=0;swimlaneHead=0;swimlaneBody=0;strokeColor=inherit;top=0;left=0;bottom=0;right=0;collapsible=0;dropTarget=0;fillColor=none;points=[[0,0.5],[1,0.5]];portConstraint=eastwest;fontSize=16;" parent="IGcFUfpyZ4BzvfiEJZXn-4" vertex="1">
          <mxGeometry width="267" height="40" as="geometry" />
        </mxCell>
        <mxCell id="IGcFUfpyZ4BzvfiEJZXn-6" value="" style="shape=partialRectangle;html=1;whiteSpace=wrap;connectable=0;strokeColor=inherit;overflow=hidden;fillColor=none;top=0;left=0;bottom=0;right=0;pointerEvents=1;fontSize=16;" parent="IGcFUfpyZ4BzvfiEJZXn-5" vertex="1">
          <mxGeometry width="15" height="40" as="geometry">
            <mxRectangle width="15" height="40" as="alternateBounds" />
          </mxGeometry>
        </mxCell>
        <mxCell id="IGcFUfpyZ4BzvfiEJZXn-7" value="9" style="shape=partialRectangle;html=1;whiteSpace=wrap;connectable=0;strokeColor=inherit;overflow=hidden;fillColor=none;top=0;left=0;bottom=0;right=0;pointerEvents=1;fontSize=16;" parent="IGcFUfpyZ4BzvfiEJZXn-5" vertex="1">
          <mxGeometry x="15" width="48" height="40" as="geometry">
            <mxRectangle width="48" height="40" as="alternateBounds" />
          </mxGeometry>
        </mxCell>
        <mxCell id="IGcFUfpyZ4BzvfiEJZXn-8" value="" style="shape=partialRectangle;html=1;whiteSpace=wrap;connectable=0;strokeColor=inherit;overflow=hidden;fillColor=none;top=0;left=0;bottom=0;right=0;pointerEvents=1;fontSize=16;" parent="IGcFUfpyZ4BzvfiEJZXn-5" vertex="1">
          <mxGeometry x="63" width="15" height="40" as="geometry">
            <mxRectangle width="15" height="40" as="alternateBounds" />
          </mxGeometry>
        </mxCell>
        <mxCell id="IGcFUfpyZ4BzvfiEJZXn-9" value="17" style="shape=partialRectangle;html=1;whiteSpace=wrap;connectable=0;strokeColor=inherit;overflow=hidden;fillColor=none;top=0;left=0;bottom=0;right=0;pointerEvents=1;fontSize=16;" parent="IGcFUfpyZ4BzvfiEJZXn-5" vertex="1">
          <mxGeometry x="78" width="48" height="40" as="geometry">
            <mxRectangle width="48" height="40" as="alternateBounds" />
          </mxGeometry>
        </mxCell>
        <mxCell id="IGcFUfpyZ4BzvfiEJZXn-10" style="shape=partialRectangle;html=1;whiteSpace=wrap;connectable=0;strokeColor=inherit;overflow=hidden;fillColor=none;top=0;left=0;bottom=0;right=0;pointerEvents=1;fontSize=16;" parent="IGcFUfpyZ4BzvfiEJZXn-5" vertex="1">
          <mxGeometry x="126" width="15" height="40" as="geometry">
            <mxRectangle width="15" height="40" as="alternateBounds" />
          </mxGeometry>
        </mxCell>
        <mxCell id="IGcFUfpyZ4BzvfiEJZXn-11" value="" style="shape=partialRectangle;html=1;whiteSpace=wrap;connectable=0;strokeColor=inherit;overflow=hidden;fillColor=none;top=0;left=0;bottom=0;right=0;pointerEvents=1;fontSize=16;" parent="IGcFUfpyZ4BzvfiEJZXn-5" vertex="1">
          <mxGeometry x="141" width="48" height="40" as="geometry">
            <mxRectangle width="48" height="40" as="alternateBounds" />
          </mxGeometry>
        </mxCell>
        <mxCell id="IGcFUfpyZ4BzvfiEJZXn-12" style="shape=partialRectangle;html=1;whiteSpace=wrap;connectable=0;strokeColor=inherit;overflow=hidden;fillColor=none;top=0;left=0;bottom=0;right=0;pointerEvents=1;fontSize=16;" parent="IGcFUfpyZ4BzvfiEJZXn-5" vertex="1">
          <mxGeometry x="189" width="15" height="40" as="geometry">
            <mxRectangle width="15" height="40" as="alternateBounds" />
          </mxGeometry>
        </mxCell>
        <mxCell id="IGcFUfpyZ4BzvfiEJZXn-13" value="" style="shape=partialRectangle;html=1;whiteSpace=wrap;connectable=0;strokeColor=inherit;overflow=hidden;fillColor=none;top=0;left=0;bottom=0;right=0;pointerEvents=1;fontSize=16;" parent="IGcFUfpyZ4BzvfiEJZXn-5" vertex="1">
          <mxGeometry x="204" width="48" height="40" as="geometry">
            <mxRectangle width="48" height="40" as="alternateBounds" />
          </mxGeometry>
        </mxCell>
        <mxCell id="IGcFUfpyZ4BzvfiEJZXn-14" style="shape=partialRectangle;html=1;whiteSpace=wrap;connectable=0;strokeColor=inherit;overflow=hidden;fillColor=none;top=0;left=0;bottom=0;right=0;pointerEvents=1;fontSize=16;" parent="IGcFUfpyZ4BzvfiEJZXn-5" vertex="1">
          <mxGeometry x="252" width="15" height="40" as="geometry">
            <mxRectangle width="15" height="40" as="alternateBounds" />
          </mxGeometry>
        </mxCell>
        <mxCell id="IGcFUfpyZ4BzvfiEJZXn-15" value="" style="shape=table;startSize=0;container=1;collapsible=0;childLayout=tableLayout;fontSize=16;" parent="1" vertex="1">
          <mxGeometry x="20" y="400" width="190" height="40" as="geometry" />
        </mxCell>
        <mxCell id="IGcFUfpyZ4BzvfiEJZXn-16" value="" style="shape=tableRow;horizontal=0;startSize=0;swimlaneHead=0;swimlaneBody=0;strokeColor=inherit;top=0;left=0;bottom=0;right=0;collapsible=0;dropTarget=0;fillColor=none;points=[[0,0.5],[1,0.5]];portConstraint=eastwest;fontSize=16;" parent="IGcFUfpyZ4BzvfiEJZXn-15" vertex="1">
          <mxGeometry width="190" height="40" as="geometry" />
        </mxCell>
        <mxCell id="IGcFUfpyZ4BzvfiEJZXn-17" value="1" style="shape=partialRectangle;html=1;whiteSpace=wrap;connectable=0;strokeColor=inherit;overflow=hidden;fillColor=none;top=0;left=0;bottom=0;right=0;pointerEvents=1;fontSize=16;" parent="IGcFUfpyZ4BzvfiEJZXn-16" vertex="1">
          <mxGeometry width="48" height="40" as="geometry">
            <mxRectangle width="48" height="40" as="alternateBounds" />
          </mxGeometry>
        </mxCell>
        <mxCell id="IGcFUfpyZ4BzvfiEJZXn-18" value="3" style="shape=partialRectangle;html=1;whiteSpace=wrap;connectable=0;strokeColor=inherit;overflow=hidden;fillColor=none;top=0;left=0;bottom=0;right=0;pointerEvents=1;fontSize=16;" parent="IGcFUfpyZ4BzvfiEJZXn-16" vertex="1">
          <mxGeometry x="48" width="47" height="40" as="geometry">
            <mxRectangle width="47" height="40" as="alternateBounds" />
          </mxGeometry>
        </mxCell>
        <mxCell id="IGcFUfpyZ4BzvfiEJZXn-19" value="5" style="shape=partialRectangle;html=1;whiteSpace=wrap;connectable=0;overflow=hidden;top=0;left=0;bottom=0;right=0;pointerEvents=1;fontSize=16;fillColor=none;strokeColor=inherit;" parent="IGcFUfpyZ4BzvfiEJZXn-16" vertex="1">
          <mxGeometry x="95" width="48" height="40" as="geometry">
            <mxRectangle width="48" height="40" as="alternateBounds" />
          </mxGeometry>
        </mxCell>
        <mxCell id="IGcFUfpyZ4BzvfiEJZXn-20" value="7" style="shape=partialRectangle;html=1;whiteSpace=wrap;connectable=0;strokeColor=inherit;overflow=hidden;fillColor=none;top=0;left=0;bottom=0;right=0;pointerEvents=1;fontSize=16;" parent="IGcFUfpyZ4BzvfiEJZXn-16" vertex="1">
          <mxGeometry x="143" width="47" height="40" as="geometry">
            <mxRectangle width="47" height="40" as="alternateBounds" />
          </mxGeometry>
        </mxCell>
        <mxCell id="IGcFUfpyZ4BzvfiEJZXn-21" value="" style="endArrow=classic;html=1;rounded=0;exitX=0.027;exitY=0.992;exitDx=0;exitDy=0;exitPerimeter=0;entryX=0.497;entryY=0.012;entryDx=0;entryDy=0;entryPerimeter=0;strokeWidth=1;" parent="1" source="IGcFUfpyZ4BzvfiEJZXn-5" target="IGcFUfpyZ4BzvfiEJZXn-16" edge="1">
          <mxGeometry width="50" height="50" relative="1" as="geometry">
            <mxPoint x="340" y="590" as="sourcePoint" />
            <mxPoint x="390" y="540" as="targetPoint" />
          </mxGeometry>
        </mxCell>
        <mxCell id="IGcFUfpyZ4BzvfiEJZXn-22" value="&lt;font style=&quot;font-size: 16px;&quot;&gt;Root&lt;/font&gt;" style="rounded=0;whiteSpace=wrap;html=1;" parent="1" vertex="1">
          <mxGeometry x="748.5" y="80" width="50" height="40" as="geometry" />
        </mxCell>
        <mxCell id="IGcFUfpyZ4BzvfiEJZXn-23" value="" style="shape=table;startSize=0;container=1;collapsible=0;childLayout=tableLayout;fontSize=16;" parent="1" vertex="1">
          <mxGeometry x="440" y="400" width="190" height="40" as="geometry" />
        </mxCell>
        <mxCell id="IGcFUfpyZ4BzvfiEJZXn-24" value="" style="shape=tableRow;horizontal=0;startSize=0;swimlaneHead=0;swimlaneBody=0;strokeColor=inherit;top=0;left=0;bottom=0;right=0;collapsible=0;dropTarget=0;fillColor=none;points=[[0,0.5],[1,0.5]];portConstraint=eastwest;fontSize=16;" parent="IGcFUfpyZ4BzvfiEJZXn-23" vertex="1">
          <mxGeometry width="190" height="40" as="geometry" />
        </mxCell>
        <mxCell id="IGcFUfpyZ4BzvfiEJZXn-25" value="17" style="shape=partialRectangle;html=1;whiteSpace=wrap;connectable=0;strokeColor=inherit;overflow=hidden;fillColor=none;top=0;left=0;bottom=0;right=0;pointerEvents=1;fontSize=16;" parent="IGcFUfpyZ4BzvfiEJZXn-24" vertex="1">
          <mxGeometry width="48" height="40" as="geometry">
            <mxRectangle width="48" height="40" as="alternateBounds" />
          </mxGeometry>
        </mxCell>
        <mxCell id="IGcFUfpyZ4BzvfiEJZXn-26" value="19" style="shape=partialRectangle;html=1;whiteSpace=wrap;connectable=0;strokeColor=inherit;overflow=hidden;fillColor=none;top=0;left=0;bottom=0;right=0;pointerEvents=1;fontSize=16;" parent="IGcFUfpyZ4BzvfiEJZXn-24" vertex="1">
          <mxGeometry x="48" width="47" height="40" as="geometry">
            <mxRectangle width="47" height="40" as="alternateBounds" />
          </mxGeometry>
        </mxCell>
        <mxCell id="IGcFUfpyZ4BzvfiEJZXn-27" value="21" style="shape=partialRectangle;html=1;whiteSpace=wrap;connectable=0;overflow=hidden;top=0;left=0;bottom=0;right=0;pointerEvents=1;fontSize=16;fillColor=none;strokeColor=inherit;" parent="IGcFUfpyZ4BzvfiEJZXn-24" vertex="1">
          <mxGeometry x="95" width="48" height="40" as="geometry">
            <mxRectangle width="48" height="40" as="alternateBounds" />
          </mxGeometry>
        </mxCell>
        <mxCell id="IGcFUfpyZ4BzvfiEJZXn-28" value="23" style="shape=partialRectangle;html=1;whiteSpace=wrap;connectable=0;strokeColor=inherit;overflow=hidden;fillColor=none;top=0;left=0;bottom=0;right=0;pointerEvents=1;fontSize=16;" parent="IGcFUfpyZ4BzvfiEJZXn-24" vertex="1">
          <mxGeometry x="143" width="47" height="40" as="geometry">
            <mxRectangle width="47" height="40" as="alternateBounds" />
          </mxGeometry>
        </mxCell>
        <mxCell id="IGcFUfpyZ4BzvfiEJZXn-29" value="" style="shape=table;startSize=0;container=1;collapsible=0;childLayout=tableLayout;fontSize=16;" parent="1" vertex="1">
          <mxGeometry x="650" y="400" width="190" height="40" as="geometry" />
        </mxCell>
        <mxCell id="IGcFUfpyZ4BzvfiEJZXn-30" value="" style="shape=tableRow;horizontal=0;startSize=0;swimlaneHead=0;swimlaneBody=0;strokeColor=inherit;top=0;left=0;bottom=0;right=0;collapsible=0;dropTarget=0;fillColor=none;points=[[0,0.5],[1,0.5]];portConstraint=eastwest;fontSize=16;" parent="IGcFUfpyZ4BzvfiEJZXn-29" vertex="1">
          <mxGeometry width="190" height="40" as="geometry" />
        </mxCell>
        <mxCell id="IGcFUfpyZ4BzvfiEJZXn-31" value="25" style="shape=partialRectangle;html=1;whiteSpace=wrap;connectable=0;strokeColor=inherit;overflow=hidden;fillColor=none;top=0;left=0;bottom=0;right=0;pointerEvents=1;fontSize=16;" parent="IGcFUfpyZ4BzvfiEJZXn-30" vertex="1">
          <mxGeometry width="48" height="40" as="geometry">
            <mxRectangle width="48" height="40" as="alternateBounds" />
          </mxGeometry>
        </mxCell>
        <mxCell id="IGcFUfpyZ4BzvfiEJZXn-32" value="27" style="shape=partialRectangle;html=1;whiteSpace=wrap;connectable=0;strokeColor=inherit;overflow=hidden;fillColor=none;top=0;left=0;bottom=0;right=0;pointerEvents=1;fontSize=16;" parent="IGcFUfpyZ4BzvfiEJZXn-30" vertex="1">
          <mxGeometry x="48" width="47" height="40" as="geometry">
            <mxRectangle width="47" height="40" as="alternateBounds" />
          </mxGeometry>
        </mxCell>
        <mxCell id="IGcFUfpyZ4BzvfiEJZXn-33" value="29" style="shape=partialRectangle;html=1;whiteSpace=wrap;connectable=0;overflow=hidden;top=0;left=0;bottom=0;right=0;pointerEvents=1;fontSize=16;fillColor=none;strokeColor=inherit;" parent="IGcFUfpyZ4BzvfiEJZXn-30" vertex="1">
          <mxGeometry x="95" width="48" height="40" as="geometry">
            <mxRectangle width="48" height="40" as="alternateBounds" />
          </mxGeometry>
        </mxCell>
        <mxCell id="IGcFUfpyZ4BzvfiEJZXn-34" value="31" style="shape=partialRectangle;html=1;whiteSpace=wrap;connectable=0;strokeColor=inherit;overflow=hidden;fillColor=none;top=0;left=0;bottom=0;right=0;pointerEvents=1;fontSize=16;" parent="IGcFUfpyZ4BzvfiEJZXn-30" vertex="1">
          <mxGeometry x="143" width="47" height="40" as="geometry">
            <mxRectangle width="47" height="40" as="alternateBounds" />
          </mxGeometry>
        </mxCell>
        <mxCell id="IGcFUfpyZ4BzvfiEJZXn-35" value="" style="shape=table;startSize=0;container=1;collapsible=0;childLayout=tableLayout;fontSize=16;" parent="1" vertex="1">
          <mxGeometry x="860" y="400" width="190" height="40" as="geometry" />
        </mxCell>
        <mxCell id="IGcFUfpyZ4BzvfiEJZXn-36" value="" style="shape=tableRow;horizontal=0;startSize=0;swimlaneHead=0;swimlaneBody=0;strokeColor=inherit;top=0;left=0;bottom=0;right=0;collapsible=0;dropTarget=0;fillColor=none;points=[[0,0.5],[1,0.5]];portConstraint=eastwest;fontSize=16;" parent="IGcFUfpyZ4BzvfiEJZXn-35" vertex="1">
          <mxGeometry width="190" height="40" as="geometry" />
        </mxCell>
        <mxCell id="IGcFUfpyZ4BzvfiEJZXn-37" value="33" style="shape=partialRectangle;html=1;whiteSpace=wrap;connectable=0;strokeColor=inherit;overflow=hidden;fillColor=none;top=0;left=0;bottom=0;right=0;pointerEvents=1;fontSize=16;" parent="IGcFUfpyZ4BzvfiEJZXn-36" vertex="1">
          <mxGeometry width="48" height="40" as="geometry">
            <mxRectangle width="48" height="40" as="alternateBounds" />
          </mxGeometry>
        </mxCell>
        <mxCell id="IGcFUfpyZ4BzvfiEJZXn-38" value="35" style="shape=partialRectangle;html=1;whiteSpace=wrap;connectable=0;strokeColor=inherit;overflow=hidden;fillColor=none;top=0;left=0;bottom=0;right=0;pointerEvents=1;fontSize=16;" parent="IGcFUfpyZ4BzvfiEJZXn-36" vertex="1">
          <mxGeometry x="48" width="47" height="40" as="geometry">
            <mxRectangle width="47" height="40" as="alternateBounds" />
          </mxGeometry>
        </mxCell>
        <mxCell id="IGcFUfpyZ4BzvfiEJZXn-39" value="37" style="shape=partialRectangle;html=1;whiteSpace=wrap;connectable=0;overflow=hidden;top=0;left=0;bottom=0;right=0;pointerEvents=1;fontSize=16;fillColor=none;strokeColor=inherit;" parent="IGcFUfpyZ4BzvfiEJZXn-36" vertex="1">
          <mxGeometry x="95" width="48" height="40" as="geometry">
            <mxRectangle width="48" height="40" as="alternateBounds" />
          </mxGeometry>
        </mxCell>
        <mxCell id="IGcFUfpyZ4BzvfiEJZXn-40" value="" style="shape=partialRectangle;html=1;whiteSpace=wrap;connectable=0;strokeColor=inherit;overflow=hidden;fillColor=none;top=0;left=0;bottom=0;right=0;pointerEvents=1;fontSize=16;" parent="IGcFUfpyZ4BzvfiEJZXn-36" vertex="1">
          <mxGeometry x="143" width="47" height="40" as="geometry">
            <mxRectangle width="47" height="40" as="alternateBounds" />
          </mxGeometry>
        </mxCell>
        <mxCell id="IGcFUfpyZ4BzvfiEJZXn-41" value="" style="shape=table;startSize=0;container=1;collapsible=0;childLayout=tableLayout;fontSize=16;" parent="1" vertex="1">
          <mxGeometry x="230" y="400" width="190" height="40" as="geometry" />
        </mxCell>
        <mxCell id="IGcFUfpyZ4BzvfiEJZXn-42" value="" style="shape=tableRow;horizontal=0;startSize=0;swimlaneHead=0;swimlaneBody=0;strokeColor=inherit;top=0;left=0;bottom=0;right=0;collapsible=0;dropTarget=0;fillColor=none;points=[[0,0.5],[1,0.5]];portConstraint=eastwest;fontSize=16;" parent="IGcFUfpyZ4BzvfiEJZXn-41" vertex="1">
          <mxGeometry width="190" height="40" as="geometry" />
        </mxCell>
        <mxCell id="IGcFUfpyZ4BzvfiEJZXn-43" value="9" style="shape=partialRectangle;html=1;whiteSpace=wrap;connectable=0;strokeColor=inherit;overflow=hidden;fillColor=none;top=0;left=0;bottom=0;right=0;pointerEvents=1;fontSize=16;" parent="IGcFUfpyZ4BzvfiEJZXn-42" vertex="1">
          <mxGeometry width="48" height="40" as="geometry">
            <mxRectangle width="48" height="40" as="alternateBounds" />
          </mxGeometry>
        </mxCell>
        <mxCell id="IGcFUfpyZ4BzvfiEJZXn-44" value="11" style="shape=partialRectangle;html=1;whiteSpace=wrap;connectable=0;strokeColor=inherit;overflow=hidden;fillColor=none;top=0;left=0;bottom=0;right=0;pointerEvents=1;fontSize=16;" parent="IGcFUfpyZ4BzvfiEJZXn-42" vertex="1">
          <mxGeometry x="48" width="47" height="40" as="geometry">
            <mxRectangle width="47" height="40" as="alternateBounds" />
          </mxGeometry>
        </mxCell>
        <mxCell id="IGcFUfpyZ4BzvfiEJZXn-45" value="13" style="shape=partialRectangle;html=1;whiteSpace=wrap;connectable=0;overflow=hidden;top=0;left=0;bottom=0;right=0;pointerEvents=1;fontSize=16;fillColor=none;strokeColor=inherit;" parent="IGcFUfpyZ4BzvfiEJZXn-42" vertex="1">
          <mxGeometry x="95" width="48" height="40" as="geometry">
            <mxRectangle width="48" height="40" as="alternateBounds" />
          </mxGeometry>
        </mxCell>
        <mxCell id="IGcFUfpyZ4BzvfiEJZXn-46" value="15" style="shape=partialRectangle;html=1;whiteSpace=wrap;connectable=0;strokeColor=inherit;overflow=hidden;fillColor=none;top=0;left=0;bottom=0;right=0;pointerEvents=1;fontSize=16;" parent="IGcFUfpyZ4BzvfiEJZXn-42" vertex="1">
          <mxGeometry x="143" width="47" height="40" as="geometry">
            <mxRectangle width="47" height="40" as="alternateBounds" />
          </mxGeometry>
        </mxCell>
        <mxCell id="IGcFUfpyZ4BzvfiEJZXn-47" value="" style="endArrow=classic;html=1;rounded=0;entryX=0.498;entryY=0.012;entryDx=0;entryDy=0;entryPerimeter=0;exitX=0.265;exitY=1.015;exitDx=0;exitDy=0;exitPerimeter=0;" parent="1" source="IGcFUfpyZ4BzvfiEJZXn-5" target="IGcFUfpyZ4BzvfiEJZXn-42" edge="1">
          <mxGeometry width="50" height="50" relative="1" as="geometry">
            <mxPoint x="480" y="410" as="sourcePoint" />
            <mxPoint x="530" y="360" as="targetPoint" />
          </mxGeometry>
        </mxCell>
        <mxCell id="IGcFUfpyZ4BzvfiEJZXn-48" value="" style="endArrow=classic;html=1;rounded=0;exitX=0.502;exitY=0.995;exitDx=0;exitDy=0;exitPerimeter=0;entryX=0.496;entryY=-0.028;entryDx=0;entryDy=0;entryPerimeter=0;strokeWidth=1;" parent="1" source="IGcFUfpyZ4BzvfiEJZXn-5" target="IGcFUfpyZ4BzvfiEJZXn-24" edge="1">
          <mxGeometry width="50" height="50" relative="1" as="geometry">
            <mxPoint x="430" y="400" as="sourcePoint" />
            <mxPoint x="540" y="390" as="targetPoint" />
          </mxGeometry>
        </mxCell>
        <mxCell id="IGcFUfpyZ4BzvfiEJZXn-49" value="" style="endArrow=classic;html=1;rounded=0;exitX=0.024;exitY=0.985;exitDx=0;exitDy=0;exitPerimeter=0;entryX=0.499;entryY=-0.015;entryDx=0;entryDy=0;entryPerimeter=0;strokeWidth=1;" parent="1" source="IGcFUfpyZ4BzvfiEJZXn-72" target="IGcFUfpyZ4BzvfiEJZXn-30" edge="1">
          <mxGeometry width="50" height="50" relative="1" as="geometry">
            <mxPoint x="680" y="400" as="sourcePoint" />
            <mxPoint x="730" y="350" as="targetPoint" />
          </mxGeometry>
        </mxCell>
        <mxCell id="IGcFUfpyZ4BzvfiEJZXn-50" value="" style="endArrow=classic;html=1;rounded=0;exitX=0.267;exitY=1.005;exitDx=0;exitDy=0;exitPerimeter=0;entryX=0.501;entryY=-0.008;entryDx=0;entryDy=0;entryPerimeter=0;strokeWidth=1;" parent="1" source="IGcFUfpyZ4BzvfiEJZXn-72" target="IGcFUfpyZ4BzvfiEJZXn-36" edge="1">
          <mxGeometry width="50" height="50" relative="1" as="geometry">
            <mxPoint x="680" y="400" as="sourcePoint" />
            <mxPoint x="860" y="390" as="targetPoint" />
          </mxGeometry>
        </mxCell>
        <mxCell id="IGcFUfpyZ4BzvfiEJZXn-51" value="" style="shape=table;startSize=0;container=1;collapsible=0;childLayout=tableLayout;fontSize=16;" parent="1" vertex="1">
          <mxGeometry x="1070" y="400" width="190" height="40" as="geometry" />
        </mxCell>
        <mxCell id="IGcFUfpyZ4BzvfiEJZXn-52" value="" style="shape=tableRow;horizontal=0;startSize=0;swimlaneHead=0;swimlaneBody=0;strokeColor=inherit;top=0;left=0;bottom=0;right=0;collapsible=0;dropTarget=0;fillColor=none;points=[[0,0.5],[1,0.5]];portConstraint=eastwest;fontSize=16;" parent="IGcFUfpyZ4BzvfiEJZXn-51" vertex="1">
          <mxGeometry width="190" height="40" as="geometry" />
        </mxCell>
        <mxCell id="IGcFUfpyZ4BzvfiEJZXn-53" value="39" style="shape=partialRectangle;html=1;whiteSpace=wrap;connectable=0;strokeColor=inherit;overflow=hidden;fillColor=none;top=0;left=0;bottom=0;right=0;pointerEvents=1;fontSize=16;" parent="IGcFUfpyZ4BzvfiEJZXn-52" vertex="1">
          <mxGeometry width="48" height="40" as="geometry">
            <mxRectangle width="48" height="40" as="alternateBounds" />
          </mxGeometry>
        </mxCell>
        <mxCell id="IGcFUfpyZ4BzvfiEJZXn-54" value="" style="shape=partialRectangle;html=1;whiteSpace=wrap;connectable=0;strokeColor=inherit;overflow=hidden;fillColor=none;top=0;left=0;bottom=0;right=0;pointerEvents=1;fontSize=16;" parent="IGcFUfpyZ4BzvfiEJZXn-52" vertex="1">
          <mxGeometry x="48" width="47" height="40" as="geometry">
            <mxRectangle width="47" height="40" as="alternateBounds" />
          </mxGeometry>
        </mxCell>
        <mxCell id="IGcFUfpyZ4BzvfiEJZXn-55" value="" style="shape=partialRectangle;html=1;whiteSpace=wrap;connectable=0;overflow=hidden;top=0;left=0;bottom=0;right=0;pointerEvents=1;fontSize=16;fillColor=none;strokeColor=inherit;" parent="IGcFUfpyZ4BzvfiEJZXn-52" vertex="1">
          <mxGeometry x="95" width="48" height="40" as="geometry">
            <mxRectangle width="48" height="40" as="alternateBounds" />
          </mxGeometry>
        </mxCell>
        <mxCell id="IGcFUfpyZ4BzvfiEJZXn-56" value="" style="shape=partialRectangle;html=1;whiteSpace=wrap;connectable=0;strokeColor=inherit;overflow=hidden;fillColor=none;top=0;left=0;bottom=0;right=0;pointerEvents=1;fontSize=16;" parent="IGcFUfpyZ4BzvfiEJZXn-52" vertex="1">
          <mxGeometry x="143" width="47" height="40" as="geometry">
            <mxRectangle width="47" height="40" as="alternateBounds" />
          </mxGeometry>
        </mxCell>
        <mxCell id="IGcFUfpyZ4BzvfiEJZXn-57" value="" style="endArrow=classic;html=1;rounded=0;exitX=0.5;exitY=1.005;exitDx=0;exitDy=0;exitPerimeter=0;entryX=0.617;entryY=-0.045;entryDx=0;entryDy=0;entryPerimeter=0;strokeWidth=1;" parent="1" source="IGcFUfpyZ4BzvfiEJZXn-72" target="IGcFUfpyZ4BzvfiEJZXn-52" edge="1">
          <mxGeometry width="50" height="50" relative="1" as="geometry">
            <mxPoint x="639" y="370" as="sourcePoint" />
            <mxPoint x="965" y="410" as="targetPoint" />
          </mxGeometry>
        </mxCell>
        <mxCell id="IGcFUfpyZ4BzvfiEJZXn-58" value="" style="endArrow=classic;html=1;rounded=0;entryX=0.5;entryY=0.035;entryDx=0;entryDy=0;entryPerimeter=0;exitX=0.5;exitY=1;exitDx=0;exitDy=0;" parent="1" source="IGcFUfpyZ4BzvfiEJZXn-22" target="IGcFUfpyZ4BzvfiEJZXn-60" edge="1">
          <mxGeometry width="50" height="50" relative="1" as="geometry">
            <mxPoint x="484" y="275" as="sourcePoint" />
            <mxPoint x="534" y="225" as="targetPoint" />
          </mxGeometry>
        </mxCell>
        <mxCell id="IGcFUfpyZ4BzvfiEJZXn-59" value="" style="shape=table;startSize=0;container=1;collapsible=0;childLayout=tableLayout;fontSize=16;" parent="1" vertex="1">
          <mxGeometry x="640" y="165" width="267" height="40" as="geometry" />
        </mxCell>
        <mxCell id="IGcFUfpyZ4BzvfiEJZXn-60" value="" style="shape=tableRow;horizontal=0;startSize=0;swimlaneHead=0;swimlaneBody=0;strokeColor=inherit;top=0;left=0;bottom=0;right=0;collapsible=0;dropTarget=0;fillColor=none;points=[[0,0.5],[1,0.5]];portConstraint=eastwest;fontSize=16;" parent="IGcFUfpyZ4BzvfiEJZXn-59" vertex="1">
          <mxGeometry width="267" height="40" as="geometry" />
        </mxCell>
        <mxCell id="IGcFUfpyZ4BzvfiEJZXn-61" value="" style="shape=partialRectangle;html=1;whiteSpace=wrap;connectable=0;strokeColor=inherit;overflow=hidden;fillColor=none;top=0;left=0;bottom=0;right=0;pointerEvents=1;fontSize=16;" parent="IGcFUfpyZ4BzvfiEJZXn-60" vertex="1">
          <mxGeometry width="15" height="40" as="geometry">
            <mxRectangle width="15" height="40" as="alternateBounds" />
          </mxGeometry>
        </mxCell>
        <mxCell id="IGcFUfpyZ4BzvfiEJZXn-62" value="25" style="shape=partialRectangle;html=1;whiteSpace=wrap;connectable=0;strokeColor=inherit;overflow=hidden;fillColor=none;top=0;left=0;bottom=0;right=0;pointerEvents=1;fontSize=16;" parent="IGcFUfpyZ4BzvfiEJZXn-60" vertex="1">
          <mxGeometry x="15" width="48" height="40" as="geometry">
            <mxRectangle width="48" height="40" as="alternateBounds" />
          </mxGeometry>
        </mxCell>
        <mxCell id="IGcFUfpyZ4BzvfiEJZXn-63" value="" style="shape=partialRectangle;html=1;whiteSpace=wrap;connectable=0;strokeColor=inherit;overflow=hidden;fillColor=none;top=0;left=0;bottom=0;right=0;pointerEvents=1;fontSize=16;" parent="IGcFUfpyZ4BzvfiEJZXn-60" vertex="1">
          <mxGeometry x="63" width="15" height="40" as="geometry">
            <mxRectangle width="15" height="40" as="alternateBounds" />
          </mxGeometry>
        </mxCell>
        <mxCell id="IGcFUfpyZ4BzvfiEJZXn-64" value="" style="shape=partialRectangle;html=1;whiteSpace=wrap;connectable=0;strokeColor=inherit;overflow=hidden;fillColor=none;top=0;left=0;bottom=0;right=0;pointerEvents=1;fontSize=16;" parent="IGcFUfpyZ4BzvfiEJZXn-60" vertex="1">
          <mxGeometry x="78" width="48" height="40" as="geometry">
            <mxRectangle width="48" height="40" as="alternateBounds" />
          </mxGeometry>
        </mxCell>
        <mxCell id="IGcFUfpyZ4BzvfiEJZXn-65" style="shape=partialRectangle;html=1;whiteSpace=wrap;connectable=0;strokeColor=inherit;overflow=hidden;fillColor=none;top=0;left=0;bottom=0;right=0;pointerEvents=1;fontSize=16;" parent="IGcFUfpyZ4BzvfiEJZXn-60" vertex="1">
          <mxGeometry x="126" width="15" height="40" as="geometry">
            <mxRectangle width="15" height="40" as="alternateBounds" />
          </mxGeometry>
        </mxCell>
        <mxCell id="IGcFUfpyZ4BzvfiEJZXn-66" value="" style="shape=partialRectangle;html=1;whiteSpace=wrap;connectable=0;strokeColor=inherit;overflow=hidden;fillColor=none;top=0;left=0;bottom=0;right=0;pointerEvents=1;fontSize=16;" parent="IGcFUfpyZ4BzvfiEJZXn-60" vertex="1">
          <mxGeometry x="141" width="48" height="40" as="geometry">
            <mxRectangle width="48" height="40" as="alternateBounds" />
          </mxGeometry>
        </mxCell>
        <mxCell id="IGcFUfpyZ4BzvfiEJZXn-67" style="shape=partialRectangle;html=1;whiteSpace=wrap;connectable=0;strokeColor=inherit;overflow=hidden;fillColor=none;top=0;left=0;bottom=0;right=0;pointerEvents=1;fontSize=16;" parent="IGcFUfpyZ4BzvfiEJZXn-60" vertex="1">
          <mxGeometry x="189" width="15" height="40" as="geometry">
            <mxRectangle width="15" height="40" as="alternateBounds" />
          </mxGeometry>
        </mxCell>
        <mxCell id="IGcFUfpyZ4BzvfiEJZXn-68" value="" style="shape=partialRectangle;html=1;whiteSpace=wrap;connectable=0;strokeColor=inherit;overflow=hidden;fillColor=none;top=0;left=0;bottom=0;right=0;pointerEvents=1;fontSize=16;" parent="IGcFUfpyZ4BzvfiEJZXn-60" vertex="1">
          <mxGeometry x="204" width="48" height="40" as="geometry">
            <mxRectangle width="48" height="40" as="alternateBounds" />
          </mxGeometry>
        </mxCell>
        <mxCell id="IGcFUfpyZ4BzvfiEJZXn-69" style="shape=partialRectangle;html=1;whiteSpace=wrap;connectable=0;strokeColor=inherit;overflow=hidden;fillColor=none;top=0;left=0;bottom=0;right=0;pointerEvents=1;fontSize=16;" parent="IGcFUfpyZ4BzvfiEJZXn-60" vertex="1">
          <mxGeometry x="252" width="15" height="40" as="geometry">
            <mxRectangle width="15" height="40" as="alternateBounds" />
          </mxGeometry>
        </mxCell>
        <mxCell id="IGcFUfpyZ4BzvfiEJZXn-70" value="" style="endArrow=classic;html=1;rounded=0;exitX=0.027;exitY=0.995;exitDx=0;exitDy=0;exitPerimeter=0;entryX=0.505;entryY=-0.005;entryDx=0;entryDy=0;entryPerimeter=0;strokeWidth=1;" parent="1" source="IGcFUfpyZ4BzvfiEJZXn-60" target="IGcFUfpyZ4BzvfiEJZXn-5" edge="1">
          <mxGeometry width="50" height="50" relative="1" as="geometry">
            <mxPoint x="1000" y="230" as="sourcePoint" />
            <mxPoint x="1050" y="180" as="targetPoint" />
          </mxGeometry>
        </mxCell>
        <mxCell id="IGcFUfpyZ4BzvfiEJZXn-71" value="" style="shape=table;startSize=0;container=1;collapsible=0;childLayout=tableLayout;fontSize=16;" parent="1" vertex="1">
          <mxGeometry x="880" y="290" width="267" height="40" as="geometry" />
        </mxCell>
        <mxCell id="IGcFUfpyZ4BzvfiEJZXn-72" value="" style="shape=tableRow;horizontal=0;startSize=0;swimlaneHead=0;swimlaneBody=0;strokeColor=inherit;top=0;left=0;bottom=0;right=0;collapsible=0;dropTarget=0;fillColor=none;points=[[0,0.5],[1,0.5]];portConstraint=eastwest;fontSize=16;" parent="IGcFUfpyZ4BzvfiEJZXn-71" vertex="1">
          <mxGeometry width="267" height="40" as="geometry" />
        </mxCell>
        <mxCell id="IGcFUfpyZ4BzvfiEJZXn-73" value="" style="shape=partialRectangle;html=1;whiteSpace=wrap;connectable=0;strokeColor=inherit;overflow=hidden;fillColor=none;top=0;left=0;bottom=0;right=0;pointerEvents=1;fontSize=16;" parent="IGcFUfpyZ4BzvfiEJZXn-72" vertex="1">
          <mxGeometry width="15" height="40" as="geometry">
            <mxRectangle width="15" height="40" as="alternateBounds" />
          </mxGeometry>
        </mxCell>
        <mxCell id="IGcFUfpyZ4BzvfiEJZXn-74" value="33" style="shape=partialRectangle;html=1;whiteSpace=wrap;connectable=0;strokeColor=inherit;overflow=hidden;fillColor=none;top=0;left=0;bottom=0;right=0;pointerEvents=1;fontSize=16;" parent="IGcFUfpyZ4BzvfiEJZXn-72" vertex="1">
          <mxGeometry x="15" width="48" height="40" as="geometry">
            <mxRectangle width="48" height="40" as="alternateBounds" />
          </mxGeometry>
        </mxCell>
        <mxCell id="IGcFUfpyZ4BzvfiEJZXn-75" value="" style="shape=partialRectangle;html=1;whiteSpace=wrap;connectable=0;strokeColor=inherit;overflow=hidden;fillColor=none;top=0;left=0;bottom=0;right=0;pointerEvents=1;fontSize=16;" parent="IGcFUfpyZ4BzvfiEJZXn-72" vertex="1">
          <mxGeometry x="63" width="15" height="40" as="geometry">
            <mxRectangle width="15" height="40" as="alternateBounds" />
          </mxGeometry>
        </mxCell>
        <mxCell id="IGcFUfpyZ4BzvfiEJZXn-76" value="39" style="shape=partialRectangle;html=1;whiteSpace=wrap;connectable=0;strokeColor=inherit;overflow=hidden;fillColor=none;top=0;left=0;bottom=0;right=0;pointerEvents=1;fontSize=16;" parent="IGcFUfpyZ4BzvfiEJZXn-72" vertex="1">
          <mxGeometry x="78" width="48" height="40" as="geometry">
            <mxRectangle width="48" height="40" as="alternateBounds" />
          </mxGeometry>
        </mxCell>
        <mxCell id="IGcFUfpyZ4BzvfiEJZXn-77" style="shape=partialRectangle;html=1;whiteSpace=wrap;connectable=0;strokeColor=inherit;overflow=hidden;fillColor=none;top=0;left=0;bottom=0;right=0;pointerEvents=1;fontSize=16;" parent="IGcFUfpyZ4BzvfiEJZXn-72" vertex="1">
          <mxGeometry x="126" width="15" height="40" as="geometry">
            <mxRectangle width="15" height="40" as="alternateBounds" />
          </mxGeometry>
        </mxCell>
        <mxCell id="IGcFUfpyZ4BzvfiEJZXn-78" value="" style="shape=partialRectangle;html=1;whiteSpace=wrap;connectable=0;strokeColor=inherit;overflow=hidden;fillColor=none;top=0;left=0;bottom=0;right=0;pointerEvents=1;fontSize=16;" parent="IGcFUfpyZ4BzvfiEJZXn-72" vertex="1">
          <mxGeometry x="141" width="48" height="40" as="geometry">
            <mxRectangle width="48" height="40" as="alternateBounds" />
          </mxGeometry>
        </mxCell>
        <mxCell id="IGcFUfpyZ4BzvfiEJZXn-79" style="shape=partialRectangle;html=1;whiteSpace=wrap;connectable=0;strokeColor=inherit;overflow=hidden;fillColor=none;top=0;left=0;bottom=0;right=0;pointerEvents=1;fontSize=16;" parent="IGcFUfpyZ4BzvfiEJZXn-72" vertex="1">
          <mxGeometry x="189" width="15" height="40" as="geometry">
            <mxRectangle width="15" height="40" as="alternateBounds" />
          </mxGeometry>
        </mxCell>
        <mxCell id="IGcFUfpyZ4BzvfiEJZXn-80" value="" style="shape=partialRectangle;html=1;whiteSpace=wrap;connectable=0;strokeColor=inherit;overflow=hidden;fillColor=none;top=0;left=0;bottom=0;right=0;pointerEvents=1;fontSize=16;" parent="IGcFUfpyZ4BzvfiEJZXn-72" vertex="1">
          <mxGeometry x="204" width="48" height="40" as="geometry">
            <mxRectangle width="48" height="40" as="alternateBounds" />
          </mxGeometry>
        </mxCell>
        <mxCell id="IGcFUfpyZ4BzvfiEJZXn-81" style="shape=partialRectangle;html=1;whiteSpace=wrap;connectable=0;strokeColor=inherit;overflow=hidden;fillColor=none;top=0;left=0;bottom=0;right=0;pointerEvents=1;fontSize=16;" parent="IGcFUfpyZ4BzvfiEJZXn-72" vertex="1">
          <mxGeometry x="252" width="15" height="40" as="geometry">
            <mxRectangle width="15" height="40" as="alternateBounds" />
          </mxGeometry>
        </mxCell>
        <mxCell id="IGcFUfpyZ4BzvfiEJZXn-82" value="" style="endArrow=classic;html=1;rounded=0;exitX=0.266;exitY=1.012;exitDx=0;exitDy=0;exitPerimeter=0;entryX=0.499;entryY=-0.008;entryDx=0;entryDy=0;entryPerimeter=0;strokeWidth=1;" parent="1" source="IGcFUfpyZ4BzvfiEJZXn-60" target="IGcFUfpyZ4BzvfiEJZXn-72" edge="1">
          <mxGeometry width="50" height="50" relative="1" as="geometry">
            <mxPoint x="920" y="230" as="sourcePoint" />
            <mxPoint x="970" y="180" as="targetPoint" />
          </mxGeometry>
        </mxCell>
        <mxCell id="IGcFUfpyZ4BzvfiEJZXn-83" value="" style="endArrow=classic;startArrow=classic;html=1;rounded=0;exitX=1;exitY=0.5;exitDx=0;exitDy=0;entryX=0;entryY=0.5;entryDx=0;entryDy=0;" parent="1" source="IGcFUfpyZ4BzvfiEJZXn-16" target="IGcFUfpyZ4BzvfiEJZXn-42" edge="1">
          <mxGeometry width="50" height="50" relative="1" as="geometry">
            <mxPoint x="500" y="410" as="sourcePoint" />
            <mxPoint x="550" y="360" as="targetPoint" />
          </mxGeometry>
        </mxCell>
        <mxCell id="IGcFUfpyZ4BzvfiEJZXn-84" value="" style="endArrow=classic;startArrow=classic;html=1;rounded=0;exitX=1;exitY=0.5;exitDx=0;exitDy=0;entryX=0;entryY=0.5;entryDx=0;entryDy=0;" parent="1" source="IGcFUfpyZ4BzvfiEJZXn-42" target="IGcFUfpyZ4BzvfiEJZXn-24" edge="1">
          <mxGeometry width="50" height="50" relative="1" as="geometry">
            <mxPoint x="510" y="310" as="sourcePoint" />
            <mxPoint x="560" y="260" as="targetPoint" />
          </mxGeometry>
        </mxCell>
        <mxCell id="IGcFUfpyZ4BzvfiEJZXn-85" value="" style="endArrow=classic;startArrow=classic;html=1;rounded=0;exitX=1;exitY=0.5;exitDx=0;exitDy=0;entryX=0;entryY=0.5;entryDx=0;entryDy=0;" parent="1" source="IGcFUfpyZ4BzvfiEJZXn-24" target="IGcFUfpyZ4BzvfiEJZXn-30" edge="1">
          <mxGeometry width="50" height="50" relative="1" as="geometry">
            <mxPoint x="750" y="310" as="sourcePoint" />
            <mxPoint x="800" y="260" as="targetPoint" />
          </mxGeometry>
        </mxCell>
        <mxCell id="IGcFUfpyZ4BzvfiEJZXn-86" value="" style="endArrow=classic;startArrow=classic;html=1;rounded=0;exitX=1;exitY=0.5;exitDx=0;exitDy=0;entryX=0;entryY=0.5;entryDx=0;entryDy=0;" parent="1" source="IGcFUfpyZ4BzvfiEJZXn-30" target="IGcFUfpyZ4BzvfiEJZXn-36" edge="1">
          <mxGeometry width="50" height="50" relative="1" as="geometry">
            <mxPoint x="750" y="310" as="sourcePoint" />
            <mxPoint x="800" y="260" as="targetPoint" />
          </mxGeometry>
        </mxCell>
        <mxCell id="IGcFUfpyZ4BzvfiEJZXn-87" value="" style="endArrow=classic;startArrow=classic;html=1;rounded=0;exitX=1;exitY=0.5;exitDx=0;exitDy=0;entryX=0;entryY=0.5;entryDx=0;entryDy=0;" parent="1" source="IGcFUfpyZ4BzvfiEJZXn-36" target="IGcFUfpyZ4BzvfiEJZXn-52" edge="1">
          <mxGeometry width="50" height="50" relative="1" as="geometry">
            <mxPoint x="1120" y="310" as="sourcePoint" />
            <mxPoint x="1170" y="260" as="targetPoint" />
          </mxGeometry>
        </mxCell>
        <mxCell id="Z7W9YJGy1TGcZVQZCbmu-1" value="&lt;font style=&quot;font-size: 16px;&quot;&gt;Underflow&lt;/font&gt;" style="text;html=1;strokeColor=none;fillColor=none;align=center;verticalAlign=middle;whiteSpace=wrap;rounded=0;" parent="1" vertex="1">
          <mxGeometry x="1090" y="730" width="190" height="30" as="geometry" />
        </mxCell>
        <mxCell id="Z7W9YJGy1TGcZVQZCbmu-2" value="&lt;font style=&quot;font-size: 16px;&quot;&gt;Merge to Left Node&lt;/font&gt;" style="text;html=1;strokeColor=none;fillColor=none;align=center;verticalAlign=middle;whiteSpace=wrap;rounded=0;" parent="1" vertex="1">
          <mxGeometry x="1090" y="760" width="200" height="30" as="geometry" />
        </mxCell>
        <mxCell id="Z7W9YJGy1TGcZVQZCbmu-4" value="" style="shape=table;startSize=0;container=1;collapsible=0;childLayout=tableLayout;fontSize=16;" parent="1" vertex="1">
          <mxGeometry x="250" y="740" width="267" height="40" as="geometry" />
        </mxCell>
        <mxCell id="Z7W9YJGy1TGcZVQZCbmu-5" value="" style="shape=tableRow;horizontal=0;startSize=0;swimlaneHead=0;swimlaneBody=0;strokeColor=inherit;top=0;left=0;bottom=0;right=0;collapsible=0;dropTarget=0;fillColor=none;points=[[0,0.5],[1,0.5]];portConstraint=eastwest;fontSize=16;" parent="Z7W9YJGy1TGcZVQZCbmu-4" vertex="1">
          <mxGeometry width="267" height="40" as="geometry" />
        </mxCell>
        <mxCell id="Z7W9YJGy1TGcZVQZCbmu-6" value="" style="shape=partialRectangle;html=1;whiteSpace=wrap;connectable=0;strokeColor=inherit;overflow=hidden;fillColor=none;top=0;left=0;bottom=0;right=0;pointerEvents=1;fontSize=16;" parent="Z7W9YJGy1TGcZVQZCbmu-5" vertex="1">
          <mxGeometry width="15" height="40" as="geometry">
            <mxRectangle width="15" height="40" as="alternateBounds" />
          </mxGeometry>
        </mxCell>
        <mxCell id="Z7W9YJGy1TGcZVQZCbmu-7" value="9" style="shape=partialRectangle;html=1;whiteSpace=wrap;connectable=0;strokeColor=inherit;overflow=hidden;fillColor=none;top=0;left=0;bottom=0;right=0;pointerEvents=1;fontSize=16;" parent="Z7W9YJGy1TGcZVQZCbmu-5" vertex="1">
          <mxGeometry x="15" width="48" height="40" as="geometry">
            <mxRectangle width="48" height="40" as="alternateBounds" />
          </mxGeometry>
        </mxCell>
        <mxCell id="Z7W9YJGy1TGcZVQZCbmu-8" value="" style="shape=partialRectangle;html=1;whiteSpace=wrap;connectable=0;strokeColor=inherit;overflow=hidden;fillColor=none;top=0;left=0;bottom=0;right=0;pointerEvents=1;fontSize=16;" parent="Z7W9YJGy1TGcZVQZCbmu-5" vertex="1">
          <mxGeometry x="63" width="15" height="40" as="geometry">
            <mxRectangle width="15" height="40" as="alternateBounds" />
          </mxGeometry>
        </mxCell>
        <mxCell id="Z7W9YJGy1TGcZVQZCbmu-9" value="17" style="shape=partialRectangle;html=1;whiteSpace=wrap;connectable=0;strokeColor=inherit;overflow=hidden;fillColor=none;top=0;left=0;bottom=0;right=0;pointerEvents=1;fontSize=16;" parent="Z7W9YJGy1TGcZVQZCbmu-5" vertex="1">
          <mxGeometry x="78" width="48" height="40" as="geometry">
            <mxRectangle width="48" height="40" as="alternateBounds" />
          </mxGeometry>
        </mxCell>
        <mxCell id="Z7W9YJGy1TGcZVQZCbmu-10" style="shape=partialRectangle;html=1;whiteSpace=wrap;connectable=0;strokeColor=inherit;overflow=hidden;fillColor=none;top=0;left=0;bottom=0;right=0;pointerEvents=1;fontSize=16;" parent="Z7W9YJGy1TGcZVQZCbmu-5" vertex="1">
          <mxGeometry x="126" width="15" height="40" as="geometry">
            <mxRectangle width="15" height="40" as="alternateBounds" />
          </mxGeometry>
        </mxCell>
        <mxCell id="Z7W9YJGy1TGcZVQZCbmu-11" value="" style="shape=partialRectangle;html=1;whiteSpace=wrap;connectable=0;strokeColor=inherit;overflow=hidden;fillColor=none;top=0;left=0;bottom=0;right=0;pointerEvents=1;fontSize=16;" parent="Z7W9YJGy1TGcZVQZCbmu-5" vertex="1">
          <mxGeometry x="141" width="48" height="40" as="geometry">
            <mxRectangle width="48" height="40" as="alternateBounds" />
          </mxGeometry>
        </mxCell>
        <mxCell id="Z7W9YJGy1TGcZVQZCbmu-12" style="shape=partialRectangle;html=1;whiteSpace=wrap;connectable=0;strokeColor=inherit;overflow=hidden;fillColor=none;top=0;left=0;bottom=0;right=0;pointerEvents=1;fontSize=16;" parent="Z7W9YJGy1TGcZVQZCbmu-5" vertex="1">
          <mxGeometry x="189" width="15" height="40" as="geometry">
            <mxRectangle width="15" height="40" as="alternateBounds" />
          </mxGeometry>
        </mxCell>
        <mxCell id="Z7W9YJGy1TGcZVQZCbmu-13" value="" style="shape=partialRectangle;html=1;whiteSpace=wrap;connectable=0;strokeColor=inherit;overflow=hidden;fillColor=none;top=0;left=0;bottom=0;right=0;pointerEvents=1;fontSize=16;" parent="Z7W9YJGy1TGcZVQZCbmu-5" vertex="1">
          <mxGeometry x="204" width="48" height="40" as="geometry">
            <mxRectangle width="48" height="40" as="alternateBounds" />
          </mxGeometry>
        </mxCell>
        <mxCell id="Z7W9YJGy1TGcZVQZCbmu-14" style="shape=partialRectangle;html=1;whiteSpace=wrap;connectable=0;strokeColor=inherit;overflow=hidden;fillColor=none;top=0;left=0;bottom=0;right=0;pointerEvents=1;fontSize=16;" parent="Z7W9YJGy1TGcZVQZCbmu-5" vertex="1">
          <mxGeometry x="252" width="15" height="40" as="geometry">
            <mxRectangle width="15" height="40" as="alternateBounds" />
          </mxGeometry>
        </mxCell>
        <mxCell id="Z7W9YJGy1TGcZVQZCbmu-15" value="" style="shape=table;startSize=0;container=1;collapsible=0;childLayout=tableLayout;fontSize=16;" parent="1" vertex="1">
          <mxGeometry x="20" y="850" width="190" height="40" as="geometry" />
        </mxCell>
        <mxCell id="Z7W9YJGy1TGcZVQZCbmu-16" value="" style="shape=tableRow;horizontal=0;startSize=0;swimlaneHead=0;swimlaneBody=0;strokeColor=inherit;top=0;left=0;bottom=0;right=0;collapsible=0;dropTarget=0;fillColor=none;points=[[0,0.5],[1,0.5]];portConstraint=eastwest;fontSize=16;" parent="Z7W9YJGy1TGcZVQZCbmu-15" vertex="1">
          <mxGeometry width="190" height="40" as="geometry" />
        </mxCell>
        <mxCell id="Z7W9YJGy1TGcZVQZCbmu-17" value="1" style="shape=partialRectangle;html=1;whiteSpace=wrap;connectable=0;strokeColor=inherit;overflow=hidden;fillColor=none;top=0;left=0;bottom=0;right=0;pointerEvents=1;fontSize=16;" parent="Z7W9YJGy1TGcZVQZCbmu-16" vertex="1">
          <mxGeometry width="48" height="40" as="geometry">
            <mxRectangle width="48" height="40" as="alternateBounds" />
          </mxGeometry>
        </mxCell>
        <mxCell id="Z7W9YJGy1TGcZVQZCbmu-18" value="3" style="shape=partialRectangle;html=1;whiteSpace=wrap;connectable=0;strokeColor=inherit;overflow=hidden;fillColor=none;top=0;left=0;bottom=0;right=0;pointerEvents=1;fontSize=16;" parent="Z7W9YJGy1TGcZVQZCbmu-16" vertex="1">
          <mxGeometry x="48" width="47" height="40" as="geometry">
            <mxRectangle width="47" height="40" as="alternateBounds" />
          </mxGeometry>
        </mxCell>
        <mxCell id="Z7W9YJGy1TGcZVQZCbmu-19" value="5" style="shape=partialRectangle;html=1;whiteSpace=wrap;connectable=0;overflow=hidden;top=0;left=0;bottom=0;right=0;pointerEvents=1;fontSize=16;fillColor=none;strokeColor=inherit;" parent="Z7W9YJGy1TGcZVQZCbmu-16" vertex="1">
          <mxGeometry x="95" width="48" height="40" as="geometry">
            <mxRectangle width="48" height="40" as="alternateBounds" />
          </mxGeometry>
        </mxCell>
        <mxCell id="Z7W9YJGy1TGcZVQZCbmu-20" value="7" style="shape=partialRectangle;html=1;whiteSpace=wrap;connectable=0;strokeColor=inherit;overflow=hidden;fillColor=none;top=0;left=0;bottom=0;right=0;pointerEvents=1;fontSize=16;" parent="Z7W9YJGy1TGcZVQZCbmu-16" vertex="1">
          <mxGeometry x="143" width="47" height="40" as="geometry">
            <mxRectangle width="47" height="40" as="alternateBounds" />
          </mxGeometry>
        </mxCell>
        <mxCell id="Z7W9YJGy1TGcZVQZCbmu-21" value="" style="endArrow=classic;html=1;rounded=0;exitX=0.027;exitY=0.992;exitDx=0;exitDy=0;exitPerimeter=0;entryX=0.497;entryY=0.012;entryDx=0;entryDy=0;entryPerimeter=0;strokeWidth=1;" parent="1" source="Z7W9YJGy1TGcZVQZCbmu-5" target="Z7W9YJGy1TGcZVQZCbmu-16" edge="1">
          <mxGeometry width="50" height="50" relative="1" as="geometry">
            <mxPoint x="340" y="1040" as="sourcePoint" />
            <mxPoint x="390" y="990" as="targetPoint" />
          </mxGeometry>
        </mxCell>
        <mxCell id="Z7W9YJGy1TGcZVQZCbmu-22" value="&lt;font style=&quot;font-size: 16px;&quot;&gt;Root&lt;/font&gt;" style="rounded=0;whiteSpace=wrap;html=1;" parent="1" vertex="1">
          <mxGeometry x="708.5" y="530" width="50" height="40" as="geometry" />
        </mxCell>
        <mxCell id="Z7W9YJGy1TGcZVQZCbmu-23" value="" style="shape=table;startSize=0;container=1;collapsible=0;childLayout=tableLayout;fontSize=16;" parent="1" vertex="1">
          <mxGeometry x="440" y="850" width="190" height="40" as="geometry" />
        </mxCell>
        <mxCell id="Z7W9YJGy1TGcZVQZCbmu-24" value="" style="shape=tableRow;horizontal=0;startSize=0;swimlaneHead=0;swimlaneBody=0;strokeColor=inherit;top=0;left=0;bottom=0;right=0;collapsible=0;dropTarget=0;fillColor=none;points=[[0,0.5],[1,0.5]];portConstraint=eastwest;fontSize=16;" parent="Z7W9YJGy1TGcZVQZCbmu-23" vertex="1">
          <mxGeometry width="190" height="40" as="geometry" />
        </mxCell>
        <mxCell id="Z7W9YJGy1TGcZVQZCbmu-25" value="17" style="shape=partialRectangle;html=1;whiteSpace=wrap;connectable=0;strokeColor=inherit;overflow=hidden;fillColor=none;top=0;left=0;bottom=0;right=0;pointerEvents=1;fontSize=16;" parent="Z7W9YJGy1TGcZVQZCbmu-24" vertex="1">
          <mxGeometry width="48" height="40" as="geometry">
            <mxRectangle width="48" height="40" as="alternateBounds" />
          </mxGeometry>
        </mxCell>
        <mxCell id="Z7W9YJGy1TGcZVQZCbmu-26" value="19" style="shape=partialRectangle;html=1;whiteSpace=wrap;connectable=0;strokeColor=inherit;overflow=hidden;fillColor=none;top=0;left=0;bottom=0;right=0;pointerEvents=1;fontSize=16;" parent="Z7W9YJGy1TGcZVQZCbmu-24" vertex="1">
          <mxGeometry x="48" width="47" height="40" as="geometry">
            <mxRectangle width="47" height="40" as="alternateBounds" />
          </mxGeometry>
        </mxCell>
        <mxCell id="Z7W9YJGy1TGcZVQZCbmu-27" value="21" style="shape=partialRectangle;html=1;whiteSpace=wrap;connectable=0;overflow=hidden;top=0;left=0;bottom=0;right=0;pointerEvents=1;fontSize=16;fillColor=none;strokeColor=inherit;" parent="Z7W9YJGy1TGcZVQZCbmu-24" vertex="1">
          <mxGeometry x="95" width="48" height="40" as="geometry">
            <mxRectangle width="48" height="40" as="alternateBounds" />
          </mxGeometry>
        </mxCell>
        <mxCell id="Z7W9YJGy1TGcZVQZCbmu-28" value="23" style="shape=partialRectangle;html=1;whiteSpace=wrap;connectable=0;strokeColor=inherit;overflow=hidden;fillColor=none;top=0;left=0;bottom=0;right=0;pointerEvents=1;fontSize=16;" parent="Z7W9YJGy1TGcZVQZCbmu-24" vertex="1">
          <mxGeometry x="143" width="47" height="40" as="geometry">
            <mxRectangle width="47" height="40" as="alternateBounds" />
          </mxGeometry>
        </mxCell>
        <mxCell id="Z7W9YJGy1TGcZVQZCbmu-29" value="" style="shape=table;startSize=0;container=1;collapsible=0;childLayout=tableLayout;fontSize=16;" parent="1" vertex="1">
          <mxGeometry x="650" y="850" width="190" height="40" as="geometry" />
        </mxCell>
        <mxCell id="Z7W9YJGy1TGcZVQZCbmu-30" value="" style="shape=tableRow;horizontal=0;startSize=0;swimlaneHead=0;swimlaneBody=0;strokeColor=inherit;top=0;left=0;bottom=0;right=0;collapsible=0;dropTarget=0;fillColor=none;points=[[0,0.5],[1,0.5]];portConstraint=eastwest;fontSize=16;" parent="Z7W9YJGy1TGcZVQZCbmu-29" vertex="1">
          <mxGeometry width="190" height="40" as="geometry" />
        </mxCell>
        <mxCell id="Z7W9YJGy1TGcZVQZCbmu-31" value="25" style="shape=partialRectangle;html=1;whiteSpace=wrap;connectable=0;strokeColor=inherit;overflow=hidden;fillColor=none;top=0;left=0;bottom=0;right=0;pointerEvents=1;fontSize=16;" parent="Z7W9YJGy1TGcZVQZCbmu-30" vertex="1">
          <mxGeometry width="48" height="40" as="geometry">
            <mxRectangle width="48" height="40" as="alternateBounds" />
          </mxGeometry>
        </mxCell>
        <mxCell id="Z7W9YJGy1TGcZVQZCbmu-32" value="27" style="shape=partialRectangle;html=1;whiteSpace=wrap;connectable=0;strokeColor=inherit;overflow=hidden;fillColor=none;top=0;left=0;bottom=0;right=0;pointerEvents=1;fontSize=16;" parent="Z7W9YJGy1TGcZVQZCbmu-30" vertex="1">
          <mxGeometry x="48" width="47" height="40" as="geometry">
            <mxRectangle width="47" height="40" as="alternateBounds" />
          </mxGeometry>
        </mxCell>
        <mxCell id="Z7W9YJGy1TGcZVQZCbmu-33" value="29" style="shape=partialRectangle;html=1;whiteSpace=wrap;connectable=0;overflow=hidden;top=0;left=0;bottom=0;right=0;pointerEvents=1;fontSize=16;fillColor=none;strokeColor=inherit;" parent="Z7W9YJGy1TGcZVQZCbmu-30" vertex="1">
          <mxGeometry x="95" width="48" height="40" as="geometry">
            <mxRectangle width="48" height="40" as="alternateBounds" />
          </mxGeometry>
        </mxCell>
        <mxCell id="Z7W9YJGy1TGcZVQZCbmu-34" value="31" style="shape=partialRectangle;html=1;whiteSpace=wrap;connectable=0;strokeColor=inherit;overflow=hidden;fillColor=none;top=0;left=0;bottom=0;right=0;pointerEvents=1;fontSize=16;" parent="Z7W9YJGy1TGcZVQZCbmu-30" vertex="1">
          <mxGeometry x="143" width="47" height="40" as="geometry">
            <mxRectangle width="47" height="40" as="alternateBounds" />
          </mxGeometry>
        </mxCell>
        <mxCell id="Z7W9YJGy1TGcZVQZCbmu-35" value="" style="shape=table;startSize=0;container=1;collapsible=0;childLayout=tableLayout;fontSize=16;" parent="1" vertex="1">
          <mxGeometry x="860" y="850" width="190" height="40" as="geometry" />
        </mxCell>
        <mxCell id="Z7W9YJGy1TGcZVQZCbmu-36" value="" style="shape=tableRow;horizontal=0;startSize=0;swimlaneHead=0;swimlaneBody=0;strokeColor=inherit;top=0;left=0;bottom=0;right=0;collapsible=0;dropTarget=0;fillColor=none;points=[[0,0.5],[1,0.5]];portConstraint=eastwest;fontSize=16;" parent="Z7W9YJGy1TGcZVQZCbmu-35" vertex="1">
          <mxGeometry width="190" height="40" as="geometry" />
        </mxCell>
        <mxCell id="Z7W9YJGy1TGcZVQZCbmu-37" value="33" style="shape=partialRectangle;html=1;whiteSpace=wrap;connectable=0;strokeColor=inherit;overflow=hidden;fillColor=none;top=0;left=0;bottom=0;right=0;pointerEvents=1;fontSize=16;" parent="Z7W9YJGy1TGcZVQZCbmu-36" vertex="1">
          <mxGeometry width="48" height="40" as="geometry">
            <mxRectangle width="48" height="40" as="alternateBounds" />
          </mxGeometry>
        </mxCell>
        <mxCell id="Z7W9YJGy1TGcZVQZCbmu-38" value="35" style="shape=partialRectangle;html=1;whiteSpace=wrap;connectable=0;strokeColor=inherit;overflow=hidden;fillColor=none;top=0;left=0;bottom=0;right=0;pointerEvents=1;fontSize=16;" parent="Z7W9YJGy1TGcZVQZCbmu-36" vertex="1">
          <mxGeometry x="48" width="47" height="40" as="geometry">
            <mxRectangle width="47" height="40" as="alternateBounds" />
          </mxGeometry>
        </mxCell>
        <mxCell id="Z7W9YJGy1TGcZVQZCbmu-39" value="37" style="shape=partialRectangle;html=1;whiteSpace=wrap;connectable=0;overflow=hidden;top=0;left=0;bottom=0;right=0;pointerEvents=1;fontSize=16;fillColor=none;strokeColor=inherit;" parent="Z7W9YJGy1TGcZVQZCbmu-36" vertex="1">
          <mxGeometry x="95" width="48" height="40" as="geometry">
            <mxRectangle width="48" height="40" as="alternateBounds" />
          </mxGeometry>
        </mxCell>
        <mxCell id="Z7W9YJGy1TGcZVQZCbmu-40" value="39" style="shape=partialRectangle;html=1;whiteSpace=wrap;connectable=0;strokeColor=inherit;overflow=hidden;fillColor=none;top=0;left=0;bottom=0;right=0;pointerEvents=1;fontSize=16;" parent="Z7W9YJGy1TGcZVQZCbmu-36" vertex="1">
          <mxGeometry x="143" width="47" height="40" as="geometry">
            <mxRectangle width="47" height="40" as="alternateBounds" />
          </mxGeometry>
        </mxCell>
        <mxCell id="Z7W9YJGy1TGcZVQZCbmu-41" value="" style="shape=table;startSize=0;container=1;collapsible=0;childLayout=tableLayout;fontSize=16;" parent="1" vertex="1">
          <mxGeometry x="230" y="850" width="190" height="40" as="geometry" />
        </mxCell>
        <mxCell id="Z7W9YJGy1TGcZVQZCbmu-42" value="" style="shape=tableRow;horizontal=0;startSize=0;swimlaneHead=0;swimlaneBody=0;strokeColor=inherit;top=0;left=0;bottom=0;right=0;collapsible=0;dropTarget=0;fillColor=none;points=[[0,0.5],[1,0.5]];portConstraint=eastwest;fontSize=16;" parent="Z7W9YJGy1TGcZVQZCbmu-41" vertex="1">
          <mxGeometry width="190" height="40" as="geometry" />
        </mxCell>
        <mxCell id="Z7W9YJGy1TGcZVQZCbmu-43" value="9" style="shape=partialRectangle;html=1;whiteSpace=wrap;connectable=0;strokeColor=inherit;overflow=hidden;fillColor=none;top=0;left=0;bottom=0;right=0;pointerEvents=1;fontSize=16;" parent="Z7W9YJGy1TGcZVQZCbmu-42" vertex="1">
          <mxGeometry width="48" height="40" as="geometry">
            <mxRectangle width="48" height="40" as="alternateBounds" />
          </mxGeometry>
        </mxCell>
        <mxCell id="Z7W9YJGy1TGcZVQZCbmu-44" value="11" style="shape=partialRectangle;html=1;whiteSpace=wrap;connectable=0;strokeColor=inherit;overflow=hidden;fillColor=none;top=0;left=0;bottom=0;right=0;pointerEvents=1;fontSize=16;" parent="Z7W9YJGy1TGcZVQZCbmu-42" vertex="1">
          <mxGeometry x="48" width="47" height="40" as="geometry">
            <mxRectangle width="47" height="40" as="alternateBounds" />
          </mxGeometry>
        </mxCell>
        <mxCell id="Z7W9YJGy1TGcZVQZCbmu-45" value="13" style="shape=partialRectangle;html=1;whiteSpace=wrap;connectable=0;overflow=hidden;top=0;left=0;bottom=0;right=0;pointerEvents=1;fontSize=16;fillColor=none;strokeColor=inherit;" parent="Z7W9YJGy1TGcZVQZCbmu-42" vertex="1">
          <mxGeometry x="95" width="48" height="40" as="geometry">
            <mxRectangle width="48" height="40" as="alternateBounds" />
          </mxGeometry>
        </mxCell>
        <mxCell id="Z7W9YJGy1TGcZVQZCbmu-46" value="15" style="shape=partialRectangle;html=1;whiteSpace=wrap;connectable=0;strokeColor=inherit;overflow=hidden;fillColor=none;top=0;left=0;bottom=0;right=0;pointerEvents=1;fontSize=16;" parent="Z7W9YJGy1TGcZVQZCbmu-42" vertex="1">
          <mxGeometry x="143" width="47" height="40" as="geometry">
            <mxRectangle width="47" height="40" as="alternateBounds" />
          </mxGeometry>
        </mxCell>
        <mxCell id="Z7W9YJGy1TGcZVQZCbmu-47" value="" style="endArrow=classic;html=1;rounded=0;entryX=0.498;entryY=0.012;entryDx=0;entryDy=0;entryPerimeter=0;exitX=0.265;exitY=1.015;exitDx=0;exitDy=0;exitPerimeter=0;" parent="1" source="Z7W9YJGy1TGcZVQZCbmu-5" target="Z7W9YJGy1TGcZVQZCbmu-42" edge="1">
          <mxGeometry width="50" height="50" relative="1" as="geometry">
            <mxPoint x="480" y="860" as="sourcePoint" />
            <mxPoint x="530" y="810" as="targetPoint" />
          </mxGeometry>
        </mxCell>
        <mxCell id="Z7W9YJGy1TGcZVQZCbmu-48" value="" style="endArrow=classic;html=1;rounded=0;exitX=0.502;exitY=0.995;exitDx=0;exitDy=0;exitPerimeter=0;entryX=0.496;entryY=-0.028;entryDx=0;entryDy=0;entryPerimeter=0;strokeWidth=1;" parent="1" source="Z7W9YJGy1TGcZVQZCbmu-5" target="Z7W9YJGy1TGcZVQZCbmu-24" edge="1">
          <mxGeometry width="50" height="50" relative="1" as="geometry">
            <mxPoint x="430" y="850" as="sourcePoint" />
            <mxPoint x="540" y="840" as="targetPoint" />
          </mxGeometry>
        </mxCell>
        <mxCell id="Z7W9YJGy1TGcZVQZCbmu-49" value="" style="endArrow=classic;html=1;rounded=0;exitX=0.024;exitY=0.985;exitDx=0;exitDy=0;exitPerimeter=0;entryX=0.499;entryY=-0.015;entryDx=0;entryDy=0;entryPerimeter=0;strokeWidth=1;" parent="1" source="Z7W9YJGy1TGcZVQZCbmu-72" target="Z7W9YJGy1TGcZVQZCbmu-30" edge="1">
          <mxGeometry width="50" height="50" relative="1" as="geometry">
            <mxPoint x="680" y="850" as="sourcePoint" />
            <mxPoint x="730" y="800" as="targetPoint" />
          </mxGeometry>
        </mxCell>
        <mxCell id="Z7W9YJGy1TGcZVQZCbmu-50" value="" style="endArrow=classic;html=1;rounded=0;exitX=0.267;exitY=1.005;exitDx=0;exitDy=0;exitPerimeter=0;entryX=0.501;entryY=-0.008;entryDx=0;entryDy=0;entryPerimeter=0;strokeWidth=1;" parent="1" source="Z7W9YJGy1TGcZVQZCbmu-72" target="Z7W9YJGy1TGcZVQZCbmu-36" edge="1">
          <mxGeometry width="50" height="50" relative="1" as="geometry">
            <mxPoint x="680" y="850" as="sourcePoint" />
            <mxPoint x="860" y="840" as="targetPoint" />
          </mxGeometry>
        </mxCell>
        <mxCell id="Z7W9YJGy1TGcZVQZCbmu-58" value="" style="endArrow=classic;html=1;rounded=0;entryX=0.5;entryY=0.035;entryDx=0;entryDy=0;entryPerimeter=0;exitX=0.5;exitY=1;exitDx=0;exitDy=0;" parent="1" source="Z7W9YJGy1TGcZVQZCbmu-22" target="Z7W9YJGy1TGcZVQZCbmu-60" edge="1">
          <mxGeometry width="50" height="50" relative="1" as="geometry">
            <mxPoint x="444" y="725" as="sourcePoint" />
            <mxPoint x="494" y="675" as="targetPoint" />
          </mxGeometry>
        </mxCell>
        <mxCell id="Z7W9YJGy1TGcZVQZCbmu-59" value="" style="shape=table;startSize=0;container=1;collapsible=0;childLayout=tableLayout;fontSize=16;" parent="1" vertex="1">
          <mxGeometry x="600" y="615" width="267" height="40" as="geometry" />
        </mxCell>
        <mxCell id="Z7W9YJGy1TGcZVQZCbmu-60" value="" style="shape=tableRow;horizontal=0;startSize=0;swimlaneHead=0;swimlaneBody=0;strokeColor=inherit;top=0;left=0;bottom=0;right=0;collapsible=0;dropTarget=0;fillColor=none;points=[[0,0.5],[1,0.5]];portConstraint=eastwest;fontSize=16;" parent="Z7W9YJGy1TGcZVQZCbmu-59" vertex="1">
          <mxGeometry width="267" height="40" as="geometry" />
        </mxCell>
        <mxCell id="Z7W9YJGy1TGcZVQZCbmu-61" value="" style="shape=partialRectangle;html=1;whiteSpace=wrap;connectable=0;strokeColor=inherit;overflow=hidden;fillColor=none;top=0;left=0;bottom=0;right=0;pointerEvents=1;fontSize=16;" parent="Z7W9YJGy1TGcZVQZCbmu-60" vertex="1">
          <mxGeometry width="15" height="40" as="geometry">
            <mxRectangle width="15" height="40" as="alternateBounds" />
          </mxGeometry>
        </mxCell>
        <mxCell id="Z7W9YJGy1TGcZVQZCbmu-62" value="25" style="shape=partialRectangle;html=1;whiteSpace=wrap;connectable=0;strokeColor=inherit;overflow=hidden;fillColor=none;top=0;left=0;bottom=0;right=0;pointerEvents=1;fontSize=16;" parent="Z7W9YJGy1TGcZVQZCbmu-60" vertex="1">
          <mxGeometry x="15" width="48" height="40" as="geometry">
            <mxRectangle width="48" height="40" as="alternateBounds" />
          </mxGeometry>
        </mxCell>
        <mxCell id="Z7W9YJGy1TGcZVQZCbmu-63" value="" style="shape=partialRectangle;html=1;whiteSpace=wrap;connectable=0;strokeColor=inherit;overflow=hidden;fillColor=none;top=0;left=0;bottom=0;right=0;pointerEvents=1;fontSize=16;" parent="Z7W9YJGy1TGcZVQZCbmu-60" vertex="1">
          <mxGeometry x="63" width="15" height="40" as="geometry">
            <mxRectangle width="15" height="40" as="alternateBounds" />
          </mxGeometry>
        </mxCell>
        <mxCell id="Z7W9YJGy1TGcZVQZCbmu-64" value="" style="shape=partialRectangle;html=1;whiteSpace=wrap;connectable=0;strokeColor=inherit;overflow=hidden;fillColor=none;top=0;left=0;bottom=0;right=0;pointerEvents=1;fontSize=16;" parent="Z7W9YJGy1TGcZVQZCbmu-60" vertex="1">
          <mxGeometry x="78" width="48" height="40" as="geometry">
            <mxRectangle width="48" height="40" as="alternateBounds" />
          </mxGeometry>
        </mxCell>
        <mxCell id="Z7W9YJGy1TGcZVQZCbmu-65" style="shape=partialRectangle;html=1;whiteSpace=wrap;connectable=0;strokeColor=inherit;overflow=hidden;fillColor=none;top=0;left=0;bottom=0;right=0;pointerEvents=1;fontSize=16;" parent="Z7W9YJGy1TGcZVQZCbmu-60" vertex="1">
          <mxGeometry x="126" width="15" height="40" as="geometry">
            <mxRectangle width="15" height="40" as="alternateBounds" />
          </mxGeometry>
        </mxCell>
        <mxCell id="Z7W9YJGy1TGcZVQZCbmu-66" value="" style="shape=partialRectangle;html=1;whiteSpace=wrap;connectable=0;strokeColor=inherit;overflow=hidden;fillColor=none;top=0;left=0;bottom=0;right=0;pointerEvents=1;fontSize=16;" parent="Z7W9YJGy1TGcZVQZCbmu-60" vertex="1">
          <mxGeometry x="141" width="48" height="40" as="geometry">
            <mxRectangle width="48" height="40" as="alternateBounds" />
          </mxGeometry>
        </mxCell>
        <mxCell id="Z7W9YJGy1TGcZVQZCbmu-67" style="shape=partialRectangle;html=1;whiteSpace=wrap;connectable=0;strokeColor=inherit;overflow=hidden;fillColor=none;top=0;left=0;bottom=0;right=0;pointerEvents=1;fontSize=16;" parent="Z7W9YJGy1TGcZVQZCbmu-60" vertex="1">
          <mxGeometry x="189" width="15" height="40" as="geometry">
            <mxRectangle width="15" height="40" as="alternateBounds" />
          </mxGeometry>
        </mxCell>
        <mxCell id="Z7W9YJGy1TGcZVQZCbmu-68" value="" style="shape=partialRectangle;html=1;whiteSpace=wrap;connectable=0;strokeColor=inherit;overflow=hidden;fillColor=none;top=0;left=0;bottom=0;right=0;pointerEvents=1;fontSize=16;" parent="Z7W9YJGy1TGcZVQZCbmu-60" vertex="1">
          <mxGeometry x="204" width="48" height="40" as="geometry">
            <mxRectangle width="48" height="40" as="alternateBounds" />
          </mxGeometry>
        </mxCell>
        <mxCell id="Z7W9YJGy1TGcZVQZCbmu-69" style="shape=partialRectangle;html=1;whiteSpace=wrap;connectable=0;strokeColor=inherit;overflow=hidden;fillColor=none;top=0;left=0;bottom=0;right=0;pointerEvents=1;fontSize=16;" parent="Z7W9YJGy1TGcZVQZCbmu-60" vertex="1">
          <mxGeometry x="252" width="15" height="40" as="geometry">
            <mxRectangle width="15" height="40" as="alternateBounds" />
          </mxGeometry>
        </mxCell>
        <mxCell id="Z7W9YJGy1TGcZVQZCbmu-70" value="" style="endArrow=classic;html=1;rounded=0;exitX=0.027;exitY=0.995;exitDx=0;exitDy=0;exitPerimeter=0;entryX=0.505;entryY=-0.005;entryDx=0;entryDy=0;entryPerimeter=0;strokeWidth=1;" parent="1" source="Z7W9YJGy1TGcZVQZCbmu-60" target="Z7W9YJGy1TGcZVQZCbmu-5" edge="1">
          <mxGeometry width="50" height="50" relative="1" as="geometry">
            <mxPoint x="1000" y="680" as="sourcePoint" />
            <mxPoint x="1050" y="630" as="targetPoint" />
          </mxGeometry>
        </mxCell>
        <mxCell id="Z7W9YJGy1TGcZVQZCbmu-71" value="" style="shape=table;startSize=0;container=1;collapsible=0;childLayout=tableLayout;fontSize=16;" parent="1" vertex="1">
          <mxGeometry x="810" y="740" width="267" height="40" as="geometry" />
        </mxCell>
        <mxCell id="Z7W9YJGy1TGcZVQZCbmu-72" value="" style="shape=tableRow;horizontal=0;startSize=0;swimlaneHead=0;swimlaneBody=0;strokeColor=inherit;top=0;left=0;bottom=0;right=0;collapsible=0;dropTarget=0;fillColor=none;points=[[0,0.5],[1,0.5]];portConstraint=eastwest;fontSize=16;" parent="Z7W9YJGy1TGcZVQZCbmu-71" vertex="1">
          <mxGeometry width="267" height="40" as="geometry" />
        </mxCell>
        <mxCell id="Z7W9YJGy1TGcZVQZCbmu-73" value="" style="shape=partialRectangle;html=1;whiteSpace=wrap;connectable=0;strokeColor=inherit;overflow=hidden;fillColor=none;top=0;left=0;bottom=0;right=0;pointerEvents=1;fontSize=16;" parent="Z7W9YJGy1TGcZVQZCbmu-72" vertex="1">
          <mxGeometry width="15" height="40" as="geometry">
            <mxRectangle width="15" height="40" as="alternateBounds" />
          </mxGeometry>
        </mxCell>
        <mxCell id="Z7W9YJGy1TGcZVQZCbmu-74" value="33" style="shape=partialRectangle;html=1;whiteSpace=wrap;connectable=0;strokeColor=inherit;overflow=hidden;fillColor=none;top=0;left=0;bottom=0;right=0;pointerEvents=1;fontSize=16;" parent="Z7W9YJGy1TGcZVQZCbmu-72" vertex="1">
          <mxGeometry x="15" width="48" height="40" as="geometry">
            <mxRectangle width="48" height="40" as="alternateBounds" />
          </mxGeometry>
        </mxCell>
        <mxCell id="Z7W9YJGy1TGcZVQZCbmu-75" value="" style="shape=partialRectangle;html=1;whiteSpace=wrap;connectable=0;strokeColor=inherit;overflow=hidden;fillColor=none;top=0;left=0;bottom=0;right=0;pointerEvents=1;fontSize=16;" parent="Z7W9YJGy1TGcZVQZCbmu-72" vertex="1">
          <mxGeometry x="63" width="15" height="40" as="geometry">
            <mxRectangle width="15" height="40" as="alternateBounds" />
          </mxGeometry>
        </mxCell>
        <mxCell id="Z7W9YJGy1TGcZVQZCbmu-76" value="" style="shape=partialRectangle;html=1;whiteSpace=wrap;connectable=0;strokeColor=inherit;overflow=hidden;fillColor=none;top=0;left=0;bottom=0;right=0;pointerEvents=1;fontSize=16;" parent="Z7W9YJGy1TGcZVQZCbmu-72" vertex="1">
          <mxGeometry x="78" width="48" height="40" as="geometry">
            <mxRectangle width="48" height="40" as="alternateBounds" />
          </mxGeometry>
        </mxCell>
        <mxCell id="Z7W9YJGy1TGcZVQZCbmu-77" style="shape=partialRectangle;html=1;whiteSpace=wrap;connectable=0;strokeColor=inherit;overflow=hidden;fillColor=none;top=0;left=0;bottom=0;right=0;pointerEvents=1;fontSize=16;" parent="Z7W9YJGy1TGcZVQZCbmu-72" vertex="1">
          <mxGeometry x="126" width="15" height="40" as="geometry">
            <mxRectangle width="15" height="40" as="alternateBounds" />
          </mxGeometry>
        </mxCell>
        <mxCell id="Z7W9YJGy1TGcZVQZCbmu-78" value="" style="shape=partialRectangle;html=1;whiteSpace=wrap;connectable=0;strokeColor=inherit;overflow=hidden;fillColor=none;top=0;left=0;bottom=0;right=0;pointerEvents=1;fontSize=16;" parent="Z7W9YJGy1TGcZVQZCbmu-72" vertex="1">
          <mxGeometry x="141" width="43" height="40" as="geometry">
            <mxRectangle width="43" height="40" as="alternateBounds" />
          </mxGeometry>
        </mxCell>
        <mxCell id="Z7W9YJGy1TGcZVQZCbmu-79" style="shape=partialRectangle;html=1;whiteSpace=wrap;connectable=0;strokeColor=inherit;overflow=hidden;fillColor=none;top=0;left=0;bottom=0;right=0;pointerEvents=1;fontSize=16;" parent="Z7W9YJGy1TGcZVQZCbmu-72" vertex="1">
          <mxGeometry x="184" width="20" height="40" as="geometry">
            <mxRectangle width="20" height="40" as="alternateBounds" />
          </mxGeometry>
        </mxCell>
        <mxCell id="Z7W9YJGy1TGcZVQZCbmu-80" value="" style="shape=partialRectangle;html=1;whiteSpace=wrap;connectable=0;strokeColor=inherit;overflow=hidden;fillColor=none;top=0;left=0;bottom=0;right=0;pointerEvents=1;fontSize=16;" parent="Z7W9YJGy1TGcZVQZCbmu-72" vertex="1">
          <mxGeometry x="204" width="48" height="40" as="geometry">
            <mxRectangle width="48" height="40" as="alternateBounds" />
          </mxGeometry>
        </mxCell>
        <mxCell id="Z7W9YJGy1TGcZVQZCbmu-81" style="shape=partialRectangle;html=1;whiteSpace=wrap;connectable=0;strokeColor=inherit;overflow=hidden;fillColor=none;top=0;left=0;bottom=0;right=0;pointerEvents=1;fontSize=16;" parent="Z7W9YJGy1TGcZVQZCbmu-72" vertex="1">
          <mxGeometry x="252" width="15" height="40" as="geometry">
            <mxRectangle width="15" height="40" as="alternateBounds" />
          </mxGeometry>
        </mxCell>
        <mxCell id="Z7W9YJGy1TGcZVQZCbmu-82" value="" style="endArrow=classic;html=1;rounded=0;exitX=0.266;exitY=1.012;exitDx=0;exitDy=0;exitPerimeter=0;entryX=0.499;entryY=-0.008;entryDx=0;entryDy=0;entryPerimeter=0;strokeWidth=1;" parent="1" source="Z7W9YJGy1TGcZVQZCbmu-60" target="Z7W9YJGy1TGcZVQZCbmu-72" edge="1">
          <mxGeometry width="50" height="50" relative="1" as="geometry">
            <mxPoint x="920" y="680" as="sourcePoint" />
            <mxPoint x="970" y="630" as="targetPoint" />
          </mxGeometry>
        </mxCell>
        <mxCell id="Z7W9YJGy1TGcZVQZCbmu-83" value="" style="endArrow=classic;startArrow=classic;html=1;rounded=0;exitX=1;exitY=0.5;exitDx=0;exitDy=0;entryX=0;entryY=0.5;entryDx=0;entryDy=0;" parent="1" source="Z7W9YJGy1TGcZVQZCbmu-16" target="Z7W9YJGy1TGcZVQZCbmu-42" edge="1">
          <mxGeometry width="50" height="50" relative="1" as="geometry">
            <mxPoint x="500" y="860" as="sourcePoint" />
            <mxPoint x="550" y="810" as="targetPoint" />
          </mxGeometry>
        </mxCell>
        <mxCell id="Z7W9YJGy1TGcZVQZCbmu-84" value="" style="endArrow=classic;startArrow=classic;html=1;rounded=0;exitX=1;exitY=0.5;exitDx=0;exitDy=0;entryX=0;entryY=0.5;entryDx=0;entryDy=0;" parent="1" source="Z7W9YJGy1TGcZVQZCbmu-42" target="Z7W9YJGy1TGcZVQZCbmu-24" edge="1">
          <mxGeometry width="50" height="50" relative="1" as="geometry">
            <mxPoint x="510" y="760" as="sourcePoint" />
            <mxPoint x="560" y="710" as="targetPoint" />
          </mxGeometry>
        </mxCell>
        <mxCell id="Z7W9YJGy1TGcZVQZCbmu-85" value="" style="endArrow=classic;startArrow=classic;html=1;rounded=0;exitX=1;exitY=0.5;exitDx=0;exitDy=0;entryX=0;entryY=0.5;entryDx=0;entryDy=0;" parent="1" source="Z7W9YJGy1TGcZVQZCbmu-24" target="Z7W9YJGy1TGcZVQZCbmu-30" edge="1">
          <mxGeometry width="50" height="50" relative="1" as="geometry">
            <mxPoint x="750" y="760" as="sourcePoint" />
            <mxPoint x="800" y="710" as="targetPoint" />
          </mxGeometry>
        </mxCell>
        <mxCell id="Z7W9YJGy1TGcZVQZCbmu-86" value="" style="endArrow=classic;startArrow=classic;html=1;rounded=0;exitX=1;exitY=0.5;exitDx=0;exitDy=0;entryX=0;entryY=0.5;entryDx=0;entryDy=0;" parent="1" source="Z7W9YJGy1TGcZVQZCbmu-30" target="Z7W9YJGy1TGcZVQZCbmu-36" edge="1">
          <mxGeometry width="50" height="50" relative="1" as="geometry">
            <mxPoint x="750" y="760" as="sourcePoint" />
            <mxPoint x="800" y="710" as="targetPoint" />
          </mxGeometry>
        </mxCell>
        <mxCell id="Z7W9YJGy1TGcZVQZCbmu-90" value="" style="shape=table;startSize=0;container=1;collapsible=0;childLayout=tableLayout;fontSize=16;" parent="1" vertex="1">
          <mxGeometry x="400" y="1046" width="267" height="40" as="geometry" />
        </mxCell>
        <mxCell id="Z7W9YJGy1TGcZVQZCbmu-91" value="" style="shape=tableRow;horizontal=0;startSize=0;swimlaneHead=0;swimlaneBody=0;strokeColor=inherit;top=0;left=0;bottom=0;right=0;collapsible=0;dropTarget=0;fillColor=none;points=[[0,0.5],[1,0.5]];portConstraint=eastwest;fontSize=16;" parent="Z7W9YJGy1TGcZVQZCbmu-90" vertex="1">
          <mxGeometry width="267" height="40" as="geometry" />
        </mxCell>
        <mxCell id="Z7W9YJGy1TGcZVQZCbmu-92" value="" style="shape=partialRectangle;html=1;whiteSpace=wrap;connectable=0;strokeColor=inherit;overflow=hidden;fillColor=none;top=0;left=0;bottom=0;right=0;pointerEvents=1;fontSize=16;" parent="Z7W9YJGy1TGcZVQZCbmu-91" vertex="1">
          <mxGeometry width="15" height="40" as="geometry">
            <mxRectangle width="15" height="40" as="alternateBounds" />
          </mxGeometry>
        </mxCell>
        <mxCell id="Z7W9YJGy1TGcZVQZCbmu-93" value="9" style="shape=partialRectangle;html=1;whiteSpace=wrap;connectable=0;strokeColor=inherit;overflow=hidden;fillColor=none;top=0;left=0;bottom=0;right=0;pointerEvents=1;fontSize=16;" parent="Z7W9YJGy1TGcZVQZCbmu-91" vertex="1">
          <mxGeometry x="15" width="48" height="40" as="geometry">
            <mxRectangle width="48" height="40" as="alternateBounds" />
          </mxGeometry>
        </mxCell>
        <mxCell id="Z7W9YJGy1TGcZVQZCbmu-94" value="" style="shape=partialRectangle;html=1;whiteSpace=wrap;connectable=0;strokeColor=inherit;overflow=hidden;fillColor=none;top=0;left=0;bottom=0;right=0;pointerEvents=1;fontSize=16;" parent="Z7W9YJGy1TGcZVQZCbmu-91" vertex="1">
          <mxGeometry x="63" width="15" height="40" as="geometry">
            <mxRectangle width="15" height="40" as="alternateBounds" />
          </mxGeometry>
        </mxCell>
        <mxCell id="Z7W9YJGy1TGcZVQZCbmu-95" value="17" style="shape=partialRectangle;html=1;whiteSpace=wrap;connectable=0;strokeColor=inherit;overflow=hidden;fillColor=none;top=0;left=0;bottom=0;right=0;pointerEvents=1;fontSize=16;" parent="Z7W9YJGy1TGcZVQZCbmu-91" vertex="1">
          <mxGeometry x="78" width="48" height="40" as="geometry">
            <mxRectangle width="48" height="40" as="alternateBounds" />
          </mxGeometry>
        </mxCell>
        <mxCell id="Z7W9YJGy1TGcZVQZCbmu-96" style="shape=partialRectangle;html=1;whiteSpace=wrap;connectable=0;strokeColor=inherit;overflow=hidden;fillColor=none;top=0;left=0;bottom=0;right=0;pointerEvents=1;fontSize=16;" parent="Z7W9YJGy1TGcZVQZCbmu-91" vertex="1">
          <mxGeometry x="126" width="15" height="40" as="geometry">
            <mxRectangle width="15" height="40" as="alternateBounds" />
          </mxGeometry>
        </mxCell>
        <mxCell id="Z7W9YJGy1TGcZVQZCbmu-97" value="25" style="shape=partialRectangle;html=1;whiteSpace=wrap;connectable=0;strokeColor=inherit;overflow=hidden;fillColor=none;top=0;left=0;bottom=0;right=0;pointerEvents=1;fontSize=16;" parent="Z7W9YJGy1TGcZVQZCbmu-91" vertex="1">
          <mxGeometry x="141" width="48" height="40" as="geometry">
            <mxRectangle width="48" height="40" as="alternateBounds" />
          </mxGeometry>
        </mxCell>
        <mxCell id="Z7W9YJGy1TGcZVQZCbmu-98" style="shape=partialRectangle;html=1;whiteSpace=wrap;connectable=0;strokeColor=inherit;overflow=hidden;fillColor=none;top=0;left=0;bottom=0;right=0;pointerEvents=1;fontSize=16;" parent="Z7W9YJGy1TGcZVQZCbmu-91" vertex="1">
          <mxGeometry x="189" width="15" height="40" as="geometry">
            <mxRectangle width="15" height="40" as="alternateBounds" />
          </mxGeometry>
        </mxCell>
        <mxCell id="Z7W9YJGy1TGcZVQZCbmu-99" value="33" style="shape=partialRectangle;html=1;whiteSpace=wrap;connectable=0;strokeColor=inherit;overflow=hidden;fillColor=none;top=0;left=0;bottom=0;right=0;pointerEvents=1;fontSize=16;" parent="Z7W9YJGy1TGcZVQZCbmu-91" vertex="1">
          <mxGeometry x="204" width="48" height="40" as="geometry">
            <mxRectangle width="48" height="40" as="alternateBounds" />
          </mxGeometry>
        </mxCell>
        <mxCell id="Z7W9YJGy1TGcZVQZCbmu-100" style="shape=partialRectangle;html=1;whiteSpace=wrap;connectable=0;strokeColor=inherit;overflow=hidden;fillColor=none;top=0;left=0;bottom=0;right=0;pointerEvents=1;fontSize=16;" parent="Z7W9YJGy1TGcZVQZCbmu-91" vertex="1">
          <mxGeometry x="252" width="15" height="40" as="geometry">
            <mxRectangle width="15" height="40" as="alternateBounds" />
          </mxGeometry>
        </mxCell>
        <mxCell id="Z7W9YJGy1TGcZVQZCbmu-101" value="" style="shape=table;startSize=0;container=1;collapsible=0;childLayout=tableLayout;fontSize=16;" parent="1" vertex="1">
          <mxGeometry x="20" y="1158" width="190" height="40" as="geometry" />
        </mxCell>
        <mxCell id="Z7W9YJGy1TGcZVQZCbmu-102" value="" style="shape=tableRow;horizontal=0;startSize=0;swimlaneHead=0;swimlaneBody=0;strokeColor=inherit;top=0;left=0;bottom=0;right=0;collapsible=0;dropTarget=0;fillColor=none;points=[[0,0.5],[1,0.5]];portConstraint=eastwest;fontSize=16;" parent="Z7W9YJGy1TGcZVQZCbmu-101" vertex="1">
          <mxGeometry width="190" height="40" as="geometry" />
        </mxCell>
        <mxCell id="Z7W9YJGy1TGcZVQZCbmu-103" value="1" style="shape=partialRectangle;html=1;whiteSpace=wrap;connectable=0;strokeColor=inherit;overflow=hidden;fillColor=none;top=0;left=0;bottom=0;right=0;pointerEvents=1;fontSize=16;" parent="Z7W9YJGy1TGcZVQZCbmu-102" vertex="1">
          <mxGeometry width="48" height="40" as="geometry">
            <mxRectangle width="48" height="40" as="alternateBounds" />
          </mxGeometry>
        </mxCell>
        <mxCell id="Z7W9YJGy1TGcZVQZCbmu-104" value="3" style="shape=partialRectangle;html=1;whiteSpace=wrap;connectable=0;strokeColor=inherit;overflow=hidden;fillColor=none;top=0;left=0;bottom=0;right=0;pointerEvents=1;fontSize=16;" parent="Z7W9YJGy1TGcZVQZCbmu-102" vertex="1">
          <mxGeometry x="48" width="47" height="40" as="geometry">
            <mxRectangle width="47" height="40" as="alternateBounds" />
          </mxGeometry>
        </mxCell>
        <mxCell id="Z7W9YJGy1TGcZVQZCbmu-105" value="5" style="shape=partialRectangle;html=1;whiteSpace=wrap;connectable=0;overflow=hidden;top=0;left=0;bottom=0;right=0;pointerEvents=1;fontSize=16;fillColor=none;strokeColor=inherit;" parent="Z7W9YJGy1TGcZVQZCbmu-102" vertex="1">
          <mxGeometry x="95" width="48" height="40" as="geometry">
            <mxRectangle width="48" height="40" as="alternateBounds" />
          </mxGeometry>
        </mxCell>
        <mxCell id="Z7W9YJGy1TGcZVQZCbmu-106" value="7" style="shape=partialRectangle;html=1;whiteSpace=wrap;connectable=0;strokeColor=inherit;overflow=hidden;fillColor=none;top=0;left=0;bottom=0;right=0;pointerEvents=1;fontSize=16;" parent="Z7W9YJGy1TGcZVQZCbmu-102" vertex="1">
          <mxGeometry x="143" width="47" height="40" as="geometry">
            <mxRectangle width="47" height="40" as="alternateBounds" />
          </mxGeometry>
        </mxCell>
        <mxCell id="Z7W9YJGy1TGcZVQZCbmu-107" value="" style="endArrow=classic;html=1;rounded=0;exitX=0.027;exitY=0.992;exitDx=0;exitDy=0;exitPerimeter=0;entryX=0.497;entryY=0.012;entryDx=0;entryDy=0;entryPerimeter=0;strokeWidth=1;" parent="1" source="Z7W9YJGy1TGcZVQZCbmu-91" target="Z7W9YJGy1TGcZVQZCbmu-102" edge="1">
          <mxGeometry width="50" height="50" relative="1" as="geometry">
            <mxPoint x="340" y="1348" as="sourcePoint" />
            <mxPoint x="390" y="1298" as="targetPoint" />
          </mxGeometry>
        </mxCell>
        <mxCell id="Z7W9YJGy1TGcZVQZCbmu-108" value="&lt;font style=&quot;font-size: 16px;&quot;&gt;Root&lt;/font&gt;" style="rounded=0;whiteSpace=wrap;html=1;" parent="1" vertex="1">
          <mxGeometry x="510" y="960" width="50" height="40" as="geometry" />
        </mxCell>
        <mxCell id="Z7W9YJGy1TGcZVQZCbmu-109" value="" style="shape=table;startSize=0;container=1;collapsible=0;childLayout=tableLayout;fontSize=16;" parent="1" vertex="1">
          <mxGeometry x="440" y="1158" width="190" height="40" as="geometry" />
        </mxCell>
        <mxCell id="Z7W9YJGy1TGcZVQZCbmu-110" value="" style="shape=tableRow;horizontal=0;startSize=0;swimlaneHead=0;swimlaneBody=0;strokeColor=inherit;top=0;left=0;bottom=0;right=0;collapsible=0;dropTarget=0;fillColor=none;points=[[0,0.5],[1,0.5]];portConstraint=eastwest;fontSize=16;" parent="Z7W9YJGy1TGcZVQZCbmu-109" vertex="1">
          <mxGeometry width="190" height="40" as="geometry" />
        </mxCell>
        <mxCell id="Z7W9YJGy1TGcZVQZCbmu-111" value="17" style="shape=partialRectangle;html=1;whiteSpace=wrap;connectable=0;strokeColor=inherit;overflow=hidden;fillColor=none;top=0;left=0;bottom=0;right=0;pointerEvents=1;fontSize=16;" parent="Z7W9YJGy1TGcZVQZCbmu-110" vertex="1">
          <mxGeometry width="48" height="40" as="geometry">
            <mxRectangle width="48" height="40" as="alternateBounds" />
          </mxGeometry>
        </mxCell>
        <mxCell id="Z7W9YJGy1TGcZVQZCbmu-112" value="19" style="shape=partialRectangle;html=1;whiteSpace=wrap;connectable=0;strokeColor=inherit;overflow=hidden;fillColor=none;top=0;left=0;bottom=0;right=0;pointerEvents=1;fontSize=16;" parent="Z7W9YJGy1TGcZVQZCbmu-110" vertex="1">
          <mxGeometry x="48" width="47" height="40" as="geometry">
            <mxRectangle width="47" height="40" as="alternateBounds" />
          </mxGeometry>
        </mxCell>
        <mxCell id="Z7W9YJGy1TGcZVQZCbmu-113" value="21" style="shape=partialRectangle;html=1;whiteSpace=wrap;connectable=0;overflow=hidden;top=0;left=0;bottom=0;right=0;pointerEvents=1;fontSize=16;fillColor=none;strokeColor=inherit;" parent="Z7W9YJGy1TGcZVQZCbmu-110" vertex="1">
          <mxGeometry x="95" width="48" height="40" as="geometry">
            <mxRectangle width="48" height="40" as="alternateBounds" />
          </mxGeometry>
        </mxCell>
        <mxCell id="Z7W9YJGy1TGcZVQZCbmu-114" value="23" style="shape=partialRectangle;html=1;whiteSpace=wrap;connectable=0;strokeColor=inherit;overflow=hidden;fillColor=none;top=0;left=0;bottom=0;right=0;pointerEvents=1;fontSize=16;" parent="Z7W9YJGy1TGcZVQZCbmu-110" vertex="1">
          <mxGeometry x="143" width="47" height="40" as="geometry">
            <mxRectangle width="47" height="40" as="alternateBounds" />
          </mxGeometry>
        </mxCell>
        <mxCell id="Z7W9YJGy1TGcZVQZCbmu-115" value="" style="shape=table;startSize=0;container=1;collapsible=0;childLayout=tableLayout;fontSize=16;" parent="1" vertex="1">
          <mxGeometry x="650" y="1158" width="190" height="40" as="geometry" />
        </mxCell>
        <mxCell id="Z7W9YJGy1TGcZVQZCbmu-116" value="" style="shape=tableRow;horizontal=0;startSize=0;swimlaneHead=0;swimlaneBody=0;strokeColor=inherit;top=0;left=0;bottom=0;right=0;collapsible=0;dropTarget=0;fillColor=none;points=[[0,0.5],[1,0.5]];portConstraint=eastwest;fontSize=16;" parent="Z7W9YJGy1TGcZVQZCbmu-115" vertex="1">
          <mxGeometry width="190" height="40" as="geometry" />
        </mxCell>
        <mxCell id="Z7W9YJGy1TGcZVQZCbmu-117" value="25" style="shape=partialRectangle;html=1;whiteSpace=wrap;connectable=0;strokeColor=inherit;overflow=hidden;fillColor=none;top=0;left=0;bottom=0;right=0;pointerEvents=1;fontSize=16;" parent="Z7W9YJGy1TGcZVQZCbmu-116" vertex="1">
          <mxGeometry width="48" height="40" as="geometry">
            <mxRectangle width="48" height="40" as="alternateBounds" />
          </mxGeometry>
        </mxCell>
        <mxCell id="Z7W9YJGy1TGcZVQZCbmu-118" value="27" style="shape=partialRectangle;html=1;whiteSpace=wrap;connectable=0;strokeColor=inherit;overflow=hidden;fillColor=none;top=0;left=0;bottom=0;right=0;pointerEvents=1;fontSize=16;" parent="Z7W9YJGy1TGcZVQZCbmu-116" vertex="1">
          <mxGeometry x="48" width="47" height="40" as="geometry">
            <mxRectangle width="47" height="40" as="alternateBounds" />
          </mxGeometry>
        </mxCell>
        <mxCell id="Z7W9YJGy1TGcZVQZCbmu-119" value="29" style="shape=partialRectangle;html=1;whiteSpace=wrap;connectable=0;overflow=hidden;top=0;left=0;bottom=0;right=0;pointerEvents=1;fontSize=16;fillColor=none;strokeColor=inherit;" parent="Z7W9YJGy1TGcZVQZCbmu-116" vertex="1">
          <mxGeometry x="95" width="48" height="40" as="geometry">
            <mxRectangle width="48" height="40" as="alternateBounds" />
          </mxGeometry>
        </mxCell>
        <mxCell id="Z7W9YJGy1TGcZVQZCbmu-120" value="31" style="shape=partialRectangle;html=1;whiteSpace=wrap;connectable=0;strokeColor=inherit;overflow=hidden;fillColor=none;top=0;left=0;bottom=0;right=0;pointerEvents=1;fontSize=16;" parent="Z7W9YJGy1TGcZVQZCbmu-116" vertex="1">
          <mxGeometry x="143" width="47" height="40" as="geometry">
            <mxRectangle width="47" height="40" as="alternateBounds" />
          </mxGeometry>
        </mxCell>
        <mxCell id="Z7W9YJGy1TGcZVQZCbmu-121" value="" style="shape=table;startSize=0;container=1;collapsible=0;childLayout=tableLayout;fontSize=16;" parent="1" vertex="1">
          <mxGeometry x="860" y="1158" width="190" height="40" as="geometry" />
        </mxCell>
        <mxCell id="Z7W9YJGy1TGcZVQZCbmu-122" value="" style="shape=tableRow;horizontal=0;startSize=0;swimlaneHead=0;swimlaneBody=0;strokeColor=inherit;top=0;left=0;bottom=0;right=0;collapsible=0;dropTarget=0;fillColor=none;points=[[0,0.5],[1,0.5]];portConstraint=eastwest;fontSize=16;" parent="Z7W9YJGy1TGcZVQZCbmu-121" vertex="1">
          <mxGeometry width="190" height="40" as="geometry" />
        </mxCell>
        <mxCell id="Z7W9YJGy1TGcZVQZCbmu-123" value="33" style="shape=partialRectangle;html=1;whiteSpace=wrap;connectable=0;strokeColor=inherit;overflow=hidden;fillColor=none;top=0;left=0;bottom=0;right=0;pointerEvents=1;fontSize=16;" parent="Z7W9YJGy1TGcZVQZCbmu-122" vertex="1">
          <mxGeometry width="48" height="40" as="geometry">
            <mxRectangle width="48" height="40" as="alternateBounds" />
          </mxGeometry>
        </mxCell>
        <mxCell id="Z7W9YJGy1TGcZVQZCbmu-124" value="35" style="shape=partialRectangle;html=1;whiteSpace=wrap;connectable=0;strokeColor=inherit;overflow=hidden;fillColor=none;top=0;left=0;bottom=0;right=0;pointerEvents=1;fontSize=16;" parent="Z7W9YJGy1TGcZVQZCbmu-122" vertex="1">
          <mxGeometry x="48" width="47" height="40" as="geometry">
            <mxRectangle width="47" height="40" as="alternateBounds" />
          </mxGeometry>
        </mxCell>
        <mxCell id="Z7W9YJGy1TGcZVQZCbmu-125" value="37" style="shape=partialRectangle;html=1;whiteSpace=wrap;connectable=0;overflow=hidden;top=0;left=0;bottom=0;right=0;pointerEvents=1;fontSize=16;fillColor=none;strokeColor=inherit;" parent="Z7W9YJGy1TGcZVQZCbmu-122" vertex="1">
          <mxGeometry x="95" width="48" height="40" as="geometry">
            <mxRectangle width="48" height="40" as="alternateBounds" />
          </mxGeometry>
        </mxCell>
        <mxCell id="Z7W9YJGy1TGcZVQZCbmu-126" value="39" style="shape=partialRectangle;html=1;whiteSpace=wrap;connectable=0;strokeColor=inherit;overflow=hidden;fillColor=none;top=0;left=0;bottom=0;right=0;pointerEvents=1;fontSize=16;" parent="Z7W9YJGy1TGcZVQZCbmu-122" vertex="1">
          <mxGeometry x="143" width="47" height="40" as="geometry">
            <mxRectangle width="47" height="40" as="alternateBounds" />
          </mxGeometry>
        </mxCell>
        <mxCell id="Z7W9YJGy1TGcZVQZCbmu-127" value="" style="shape=table;startSize=0;container=1;collapsible=0;childLayout=tableLayout;fontSize=16;" parent="1" vertex="1">
          <mxGeometry x="230" y="1158" width="190" height="40" as="geometry" />
        </mxCell>
        <mxCell id="Z7W9YJGy1TGcZVQZCbmu-128" value="" style="shape=tableRow;horizontal=0;startSize=0;swimlaneHead=0;swimlaneBody=0;strokeColor=inherit;top=0;left=0;bottom=0;right=0;collapsible=0;dropTarget=0;fillColor=none;points=[[0,0.5],[1,0.5]];portConstraint=eastwest;fontSize=16;" parent="Z7W9YJGy1TGcZVQZCbmu-127" vertex="1">
          <mxGeometry width="190" height="40" as="geometry" />
        </mxCell>
        <mxCell id="Z7W9YJGy1TGcZVQZCbmu-129" value="9" style="shape=partialRectangle;html=1;whiteSpace=wrap;connectable=0;strokeColor=inherit;overflow=hidden;fillColor=none;top=0;left=0;bottom=0;right=0;pointerEvents=1;fontSize=16;" parent="Z7W9YJGy1TGcZVQZCbmu-128" vertex="1">
          <mxGeometry width="48" height="40" as="geometry">
            <mxRectangle width="48" height="40" as="alternateBounds" />
          </mxGeometry>
        </mxCell>
        <mxCell id="Z7W9YJGy1TGcZVQZCbmu-130" value="11" style="shape=partialRectangle;html=1;whiteSpace=wrap;connectable=0;strokeColor=inherit;overflow=hidden;fillColor=none;top=0;left=0;bottom=0;right=0;pointerEvents=1;fontSize=16;" parent="Z7W9YJGy1TGcZVQZCbmu-128" vertex="1">
          <mxGeometry x="48" width="47" height="40" as="geometry">
            <mxRectangle width="47" height="40" as="alternateBounds" />
          </mxGeometry>
        </mxCell>
        <mxCell id="Z7W9YJGy1TGcZVQZCbmu-131" value="13" style="shape=partialRectangle;html=1;whiteSpace=wrap;connectable=0;overflow=hidden;top=0;left=0;bottom=0;right=0;pointerEvents=1;fontSize=16;fillColor=none;strokeColor=inherit;" parent="Z7W9YJGy1TGcZVQZCbmu-128" vertex="1">
          <mxGeometry x="95" width="48" height="40" as="geometry">
            <mxRectangle width="48" height="40" as="alternateBounds" />
          </mxGeometry>
        </mxCell>
        <mxCell id="Z7W9YJGy1TGcZVQZCbmu-132" value="15" style="shape=partialRectangle;html=1;whiteSpace=wrap;connectable=0;strokeColor=inherit;overflow=hidden;fillColor=none;top=0;left=0;bottom=0;right=0;pointerEvents=1;fontSize=16;" parent="Z7W9YJGy1TGcZVQZCbmu-128" vertex="1">
          <mxGeometry x="143" width="47" height="40" as="geometry">
            <mxRectangle width="47" height="40" as="alternateBounds" />
          </mxGeometry>
        </mxCell>
        <mxCell id="Z7W9YJGy1TGcZVQZCbmu-133" value="" style="endArrow=classic;html=1;rounded=0;entryX=0.498;entryY=0.012;entryDx=0;entryDy=0;entryPerimeter=0;exitX=0.265;exitY=1.015;exitDx=0;exitDy=0;exitPerimeter=0;" parent="1" source="Z7W9YJGy1TGcZVQZCbmu-91" target="Z7W9YJGy1TGcZVQZCbmu-128" edge="1">
          <mxGeometry width="50" height="50" relative="1" as="geometry">
            <mxPoint x="480" y="1168" as="sourcePoint" />
            <mxPoint x="530" y="1118" as="targetPoint" />
          </mxGeometry>
        </mxCell>
        <mxCell id="Z7W9YJGy1TGcZVQZCbmu-134" value="" style="endArrow=classic;html=1;rounded=0;exitX=0.502;exitY=0.995;exitDx=0;exitDy=0;exitPerimeter=0;entryX=0.496;entryY=-0.028;entryDx=0;entryDy=0;entryPerimeter=0;strokeWidth=1;" parent="1" source="Z7W9YJGy1TGcZVQZCbmu-91" target="Z7W9YJGy1TGcZVQZCbmu-110" edge="1">
          <mxGeometry width="50" height="50" relative="1" as="geometry">
            <mxPoint x="430" y="1158" as="sourcePoint" />
            <mxPoint x="540" y="1148" as="targetPoint" />
          </mxGeometry>
        </mxCell>
        <mxCell id="Z7W9YJGy1TGcZVQZCbmu-135" value="" style="endArrow=classic;html=1;rounded=0;exitX=0.733;exitY=1.005;exitDx=0;exitDy=0;exitPerimeter=0;entryX=0.499;entryY=-0.015;entryDx=0;entryDy=0;entryPerimeter=0;strokeWidth=1;" parent="1" source="Z7W9YJGy1TGcZVQZCbmu-91" target="Z7W9YJGy1TGcZVQZCbmu-116" edge="1">
          <mxGeometry width="50" height="50" relative="1" as="geometry">
            <mxPoint x="680" y="1158" as="sourcePoint" />
            <mxPoint x="730" y="1108" as="targetPoint" />
          </mxGeometry>
        </mxCell>
        <mxCell id="Z7W9YJGy1TGcZVQZCbmu-136" value="" style="endArrow=classic;html=1;rounded=0;exitX=0.97;exitY=0.986;exitDx=0;exitDy=0;exitPerimeter=0;entryX=0.501;entryY=-0.008;entryDx=0;entryDy=0;entryPerimeter=0;strokeWidth=1;" parent="1" source="Z7W9YJGy1TGcZVQZCbmu-91" target="Z7W9YJGy1TGcZVQZCbmu-122" edge="1">
          <mxGeometry width="50" height="50" relative="1" as="geometry">
            <mxPoint x="680" y="1158" as="sourcePoint" />
            <mxPoint x="860" y="1148" as="targetPoint" />
          </mxGeometry>
        </mxCell>
        <mxCell id="Z7W9YJGy1TGcZVQZCbmu-137" value="" style="endArrow=classic;html=1;rounded=0;entryX=0.5;entryY=0.035;entryDx=0;entryDy=0;entryPerimeter=0;exitX=0.5;exitY=1;exitDx=0;exitDy=0;" parent="1" source="Z7W9YJGy1TGcZVQZCbmu-108" edge="1">
          <mxGeometry width="50" height="50" relative="1" as="geometry">
            <mxPoint x="245.5" y="1155" as="sourcePoint" />
            <mxPoint x="535" y="1046.4" as="targetPoint" />
          </mxGeometry>
        </mxCell>
        <mxCell id="Z7W9YJGy1TGcZVQZCbmu-162" value="" style="endArrow=classic;startArrow=classic;html=1;rounded=0;exitX=1;exitY=0.5;exitDx=0;exitDy=0;entryX=0;entryY=0.5;entryDx=0;entryDy=0;" parent="1" source="Z7W9YJGy1TGcZVQZCbmu-102" target="Z7W9YJGy1TGcZVQZCbmu-128" edge="1">
          <mxGeometry width="50" height="50" relative="1" as="geometry">
            <mxPoint x="500" y="1168" as="sourcePoint" />
            <mxPoint x="550" y="1118" as="targetPoint" />
          </mxGeometry>
        </mxCell>
        <mxCell id="Z7W9YJGy1TGcZVQZCbmu-163" value="" style="endArrow=classic;startArrow=classic;html=1;rounded=0;exitX=1;exitY=0.5;exitDx=0;exitDy=0;entryX=0;entryY=0.5;entryDx=0;entryDy=0;" parent="1" source="Z7W9YJGy1TGcZVQZCbmu-128" target="Z7W9YJGy1TGcZVQZCbmu-110" edge="1">
          <mxGeometry width="50" height="50" relative="1" as="geometry">
            <mxPoint x="510" y="1068" as="sourcePoint" />
            <mxPoint x="560" y="1018" as="targetPoint" />
          </mxGeometry>
        </mxCell>
        <mxCell id="Z7W9YJGy1TGcZVQZCbmu-164" value="" style="endArrow=classic;startArrow=classic;html=1;rounded=0;exitX=1;exitY=0.5;exitDx=0;exitDy=0;entryX=0;entryY=0.5;entryDx=0;entryDy=0;" parent="1" source="Z7W9YJGy1TGcZVQZCbmu-110" target="Z7W9YJGy1TGcZVQZCbmu-116" edge="1">
          <mxGeometry width="50" height="50" relative="1" as="geometry">
            <mxPoint x="750" y="1068" as="sourcePoint" />
            <mxPoint x="800" y="1018" as="targetPoint" />
          </mxGeometry>
        </mxCell>
        <mxCell id="Z7W9YJGy1TGcZVQZCbmu-165" value="" style="endArrow=classic;startArrow=classic;html=1;rounded=0;exitX=1;exitY=0.5;exitDx=0;exitDy=0;entryX=0;entryY=0.5;entryDx=0;entryDy=0;" parent="1" source="Z7W9YJGy1TGcZVQZCbmu-116" target="Z7W9YJGy1TGcZVQZCbmu-122" edge="1">
          <mxGeometry width="50" height="50" relative="1" as="geometry">
            <mxPoint x="750" y="1068" as="sourcePoint" />
            <mxPoint x="800" y="1018" as="targetPoint" />
          </mxGeometry>
        </mxCell>
        <mxCell id="Z7W9YJGy1TGcZVQZCbmu-166" value="&lt;font style=&quot;font-size: 16px;&quot;&gt;Delete Empty Root&lt;/font&gt;" style="text;html=1;strokeColor=none;fillColor=none;align=center;verticalAlign=middle;whiteSpace=wrap;rounded=0;" parent="1" vertex="1">
          <mxGeometry x="890" y="605" width="190" height="30" as="geometry" />
        </mxCell>
        <mxCell id="Z7W9YJGy1TGcZVQZCbmu-167" value="&lt;font style=&quot;font-size: 16px;&quot;&gt;Assign New Root&lt;/font&gt;" style="text;html=1;strokeColor=none;fillColor=none;align=center;verticalAlign=middle;whiteSpace=wrap;rounded=0;" parent="1" vertex="1">
          <mxGeometry x="890" y="635" width="200" height="30" as="geometry" />
        </mxCell>
      </root>
    </mxGraphModel>
  </diagram>
</mxfile>
